SplineFontDB: 3.0
FontName: Lexington-Gothic
FullName: Lexington Gothic Regular
FamilyName: Lexington
Weight: Book
Copyright: Copyright csyde 2015
Version: 1.0
ItalicAngle: 0
UnderlinePosition: 75
UnderlineWidth: 49
Ascent: 823
Descent: 201
InvalidEm: 0
sfntRevision: 0x00010000
LayerCount: 2
Layer: 0 1 "Back" 1
Layer: 1 1 "Fore" 0
XUID: [1021 273 464692840 3201285]
FSType: 4
OS2Version: 2
OS2_WeightWidthSlopeOnly: 0
OS2_UseTypoMetrics: 1
CreationTime: 1428114007
ModificationTime: 1455261078
PfmFamily: 81
TTFWeight: 400
TTFWidth: 5
LineGap: 0
VLineGap: 0
Panose: 0 0 4 0 0 0 0 0 0 0
OS2TypoAscent: 512
OS2TypoAOffset: 0
OS2TypoDescent: -128
OS2TypoDOffset: 0
OS2TypoLinegap: 0
OS2WinAscent: 672
OS2WinAOffset: 0
OS2WinDescent: 128
OS2WinDOffset: 0
HheadAscent: 672
HheadAOffset: 0
HheadDescent: -128
HheadDOffset: 0
OS2SubXSize: 512
OS2SubYSize: 512
OS2SubXOff: 0
OS2SubYOff: -64
OS2SupXSize: 512
OS2SupYSize: 512
OS2SupXOff: 0
OS2SupYOff: 512
OS2StrikeYSize: 51
OS2StrikeYPos: 204
OS2CapHeight: 596
OS2XHeight: 335
OS2Vendor: 'FSTR'
OS2CodePages: 000001fb.00000000
OS2UnicodeRanges: a0000007.4000000a.00000000.00000000
MarkAttachClasses: 1
DEI: 91125
ShortTable: maxp 16
  1
  0
  215
  60
  5
  0
  0
  2
  0
  0
  0
  0
  0
  0
  0
  0
EndShort
LangName: 1033 "" "" "" "FontStruct Lexington Gothic" "" "Version 1.0" "" "FontStruct is a trademark of FSI FontShop International GmbH" "http://fontstruct.com" "csyde" "+IBoAxAD6-Lexington Gothic+IBoAxAD5 was built with FontStruct+AAoA" "http://www.fontshop.com" "http://fontstruct.com/fontstructions/show/1134409" "Creative Commons Attribution Share Alike" "http://creativecommons.org/licenses/by-sa/3.0/" "" "" "" "" "Vexed, Steve Wozniak beta tests yet more cold gefilte fish just prior to quiet. "
GaspTable: 1 65535 2 0
Encoding: UnicodeBmp
UnicodeInterp: none
NameList: AGL For New Fonts
DisplaySize: -48
AntiAlias: 1
FitToEm: 1
WidthSeparation: 165
WinInfo: 64 16 7
BeginPrivate: 0
EndPrivate
BeginChars: 65539 215

StartChar: .notdef
Encoding: 65536 -1 0
Width: 15
Flags: W
LayerCount: 2
Back
Fore
SplineSet
256 11 m 1,0,-1
 256 119 l 1,1,-1
 147 119 l 1,2,-1
 147 11 l 1,3,-1
 256 11 l 1,0,-1
365 139 m 1,4,-1
 365 247 l 1,5,-1
 147 247 l 1,6,-1
 147 139 l 1,7,-1
 365 139 l 1,4,-1
256 264 m 1,8,-1
 256 373 l 1,9,-1
 147 373 l 1,10,-1
 147 264 l 1,11,-1
 256 264 l 1,8,-1
365 390 m 1,12,-1
 365 498 l 1,13,-1
 256 498 l 2,14,15
 211 498 211 498 180 467 c 256,16,17
 148 436 148 436 147 390 c 1,18,-1
 365 390 l 1,12,-1
-85 -85 m 1,19,-1
 -85 597 l 1,20,-1
 597 597 l 1,21,-1
 597 -85 l 1,22,-1
 -85 -85 l 1,19,-1
EndSplineSet
EndChar

StartChar: exclam
Encoding: 33 33 4
Width: 248
GlyphClass: 2
Flags: W
LayerCount: 2
Back
Fore
SplineSet
103 0 m 2,0,1
 93 0 93 0 87 5 c 0,2,3
 81 11 81 11 81 21 c 2,4,-1
 81 62 l 2,5,6
 81 71 81 71 87 79 c 256,7,8
 93 86 93 86 103 85 c 2,9,-1
 144 85 l 2,10,11
 152 85 152 85 161 79 c 256,12,13
 168 72 168 72 167 62 c 2,14,-1
 167 21 l 2,15,16
 167 11 167 11 161 5 c 0,17,18
 154 0 154 0 144 0 c 2,19,-1
 103 0 l 2,0,1
81 126 m 1,20,-1
 81 680 l 5,21,-1
 167 680 l 1,22,-1
 167 126 l 1,23,-1
 81 126 l 1,20,-1
EndSplineSet
EndChar

StartChar: quotedbl
Encoding: 34 34 5
Width: 357
GlyphClass: 2
Flags: W
LayerCount: 2
Back
Fore
SplineSet
93 517 m 5,0,-1
 93 558 l 5,1,-1
 72 602 l 5,2,-1
 72 666 l 6,3,4
 72 674 72 674 77 680 c 4,5,6
 84 687 84 687 93 687 c 6,7,-1
 134 687 l 6,8,9
 142 687 142 687 151 680 c 4,10,11
 158 674 158 674 157 665 c 6,12,-1
 157 602 l 5,13,-1
 134 558 l 5,14,-1
 134 517 l 5,15,-1
 93 517 l 5,0,-1
221 517 m 5,16,-1
 221 558 l 5,17,-1
 198 602 l 5,18,-1
 198 666 l 6,19,20
 198 674 198 674 204 680 c 4,21,22
 210 687 210 687 221 687 c 6,23,-1
 264 687 l 6,24,25
 272 687 272 687 277 680 c 4,26,27
 283 674 283 674 284 665 c 6,28,-1
 284 602 l 5,29,-1
 264 558 l 5,30,-1
 264 517 l 5,31,-1
 221 517 l 5,16,-1
EndSplineSet
EndChar

StartChar: numbersign
Encoding: 35 35 6
Width: 633
GlyphClass: 2
Flags: W
LayerCount: 2
Back
Fore
SplineSet
402 214 m 5,0,-1
 402 512 l 5,1,-1
 232 512 l 5,2,-1
 232 214 l 5,3,-1
 402 214 l 5,0,-1
148 86 m 5,4,-1
 148 171 l 5,5,-1
 62 171 l 5,6,-1
 62 214 l 5,7,-1
 148 214 l 5,8,-1
 148 512 l 5,9,-1
 62 512 l 5,10,-1
 62 554 l 5,11,-1
 148 554 l 5,12,-1
 148 640 l 5,13,-1
 232 640 l 5,14,-1
 232 554 l 5,15,-1
 402 554 l 5,16,-1
 402 640 l 5,17,-1
 488 640 l 5,18,-1
 488 554 l 5,19,-1
 572 554 l 5,20,-1
 572 512 l 5,21,-1
 488 512 l 5,22,-1
 488 214 l 5,23,-1
 572 214 l 5,24,-1
 572 171 l 5,25,-1
 488 171 l 5,26,-1
 488 86 l 5,27,-1
 402 86 l 5,28,-1
 402 171 l 5,29,-1
 232 171 l 5,30,-1
 232 86 l 5,31,-1
 148 86 l 5,4,-1
EndSplineSet
EndChar

StartChar: dollar
Encoding: 36 36 7
Width: 555
GlyphClass: 2
Flags: W
LayerCount: 2
Back
Fore
SplineSet
361 85 m 1,0,-1
 405 126 l 1,1,-1
 405 171 l 1,2,-1
 319 255 l 1,3,-1
 319 85 l 1,4,-1
 361 85 l 1,0,-1
233 446 m 1,5,-1
 233 595 l 1,6,-1
 190 595 l 1,7,-1
 149 553 l 1,8,-1
 149 532 l 1,9,-1
 233 446 l 1,5,-1
233 0 m 1,10,-1
 233 42 l 1,11,-1
 149 42 l 1,12,-1
 63 126 l 1,13,-1
 63 171 l 1,14,-1
 149 171 l 1,15,-1
 149 126 l 1,16,-1
 190 85 l 1,17,-1
 233 85 l 1,18,-1
 233 341 l 1,19,-1
 63 510 l 1,20,-1
 63 553 l 1,21,-1
 149 638 l 1,22,-1
 233 638 l 1,23,-1
 233 680 l 1,24,-1
 319 680 l 5,25,-1
 319 638 l 1,26,-1
 405 638 l 1,27,-1
 490 553 l 1,28,-1
 490 510 l 1,29,-1
 405 510 l 1,30,-1
 405 553 l 1,31,-1
 361 595 l 1,32,-1
 319 595 l 1,33,-1
 319 360 l 1,34,-1
 490 192 l 1,35,-1
 490 126 l 1,36,-1
 405 42 l 1,37,-1
 319 42 l 1,38,-1
 319 0 l 1,39,-1
 233 0 l 1,10,-1
EndSplineSet
EndChar

StartChar: percent
Encoding: 37 37 8
Width: 554
GlyphClass: 2
Flags: W
LayerCount: 2
Back
Fore
SplineSet
408 42 m 5,0,-1
 449 85 l 5,1,-1
 449 126 l 5,2,-1
 408 171 l 5,3,-1
 364 171 l 5,4,-1
 322 126 l 5,5,-1
 322 85 l 5,6,-1
 364 42 l 5,7,-1
 408 42 l 5,0,-1
322 0 m 5,8,-1
 279 42 l 5,9,-1
 279 171 l 5,10,-1
 322 212 l 5,11,-1
 449 212 l 5,12,-1
 493 171 l 5,13,-1
 493 42 l 5,14,-1
 449 0 l 5,15,-1
 322 0 l 5,8,-1
193 510 m 5,16,-1
 236 553 l 5,17,-1
 236 595 l 5,18,-1
 193 638 l 5,19,-1
 152 638 l 5,20,-1
 109 595 l 5,21,-1
 109 553 l 5,22,-1
 152 510 l 5,23,-1
 193 510 l 5,16,-1
109 468 m 5,24,-1
 66 510 l 5,25,-1
 66 638 l 5,26,-1
 109 680 l 5,27,-1
 236 680 l 5,28,-1
 279 638 l 5,29,-1
 279 510 l 5,30,-1
 236 468 l 5,31,-1
 109 468 l 5,24,-1
66 0 m 5,32,-1
 408 680 l 5,33,-1
 493 680 l 5,34,-1
 152 0 l 5,35,-1
 66 0 l 5,32,-1
EndSplineSet
EndChar

StartChar: ampersand
Encoding: 38 38 9
Width: 472
GlyphClass: 2
Flags: W
LayerCount: 2
Back
Fore
SplineSet
159 0 m 5,0,-1
 73 85 l 5,1,-1
 73 298 l 5,2,-1
 115 341 l 5,3,-1
 136 361 l 5,4,-1
 73 426 l 5,5,-1
 73 511 l 5,6,-1
 159 597 l 5,7,-1
 371 597 l 5,8,-1
 371 553 l 5,9,-1
 200 553 l 5,10,-1
 159 511 l 5,11,-1
 159 426 l 5,12,-1
 200 384 l 5,13,-1
 286 384 l 5,14,-1
 286 468 l 5,15,-1
 371 468 l 5,16,-1
 371 384 l 5,17,-1
 413 384 l 5,18,-1
 413 341 l 5,19,-1
 371 341 l 5,20,-1
 371 85 l 5,21,-1
 413 42 l 5,22,-1
 413 0 l 5,23,-1
 371 0 l 5,24,-1
 286 85 l 5,25,-1
 286 341 l 5,26,-1
 200 341 l 5,27,-1
 159 298 l 5,28,-1
 159 85 l 5,29,-1
 200 42 l 5,30,-1
 286 42 l 5,31,-1
 286 0 l 5,32,-1
 159 0 l 5,0,-1
EndSplineSet
EndChar

StartChar: quotesingle
Encoding: 39 39 10
Width: 231
GlyphClass: 2
Flags: W
LayerCount: 2
Back
Fore
SplineSet
94 510 m 5,0,-1
 94 552 l 5,1,-1
 72 595 l 5,2,-1
 72 659 l 6,3,4
 72 667 72 667 78 672 c 4,5,6
 84 679 84 679 94 680 c 6,7,-1
 136 680 l 6,8,9
 144 680 144 680 151 672 c 4,10,11
 158 666 158 666 158 659 c 6,12,-1
 158 595 l 5,13,-1
 136 552 l 5,14,-1
 136 510 l 5,15,-1
 94 510 l 5,0,-1
EndSplineSet
EndChar

StartChar: parenleft
Encoding: 40 40 11
Width: 293
GlyphClass: 2
Flags: W
LayerCount: 2
Back
Fore
SplineSet
163 -42 m 1,0,-1
 78 42 l 1,1,-1
 78 638 l 1,2,-1
 163 724 l 1,3,-1
 248 724 l 1,4,-1
 248 681 l 1,5,-1
 206 681 l 1,6,-1
 163 638 l 1,7,-1
 163 42 l 1,8,-1
 206 1 l 1,9,-1
 248 1 l 1,10,-1
 248 -42 l 1,11,-1
 163 -42 l 1,0,-1
EndSplineSet
EndChar

StartChar: parenright
Encoding: 41 41 12
Width: 295
GlyphClass: 2
Flags: W
LayerCount: 2
Back
Fore
SplineSet
46 -42 m 5,0,-1
 46 0 l 5,1,-1
 88 0 l 5,2,-1
 132 42 l 5,3,-1
 132 638 l 5,4,-1
 88 680 l 5,5,-1
 46 680 l 5,6,-1
 46 724 l 5,7,-1
 132 724 l 5,8,-1
 216 638 l 5,9,-1
 216 42 l 5,10,-1
 132 -42 l 5,11,-1
 46 -42 l 5,0,-1
EndSplineSet
EndChar

StartChar: asterisk
Encoding: 42 42 13
Width: 424
GlyphClass: 2
Flags: W
LayerCount: 2
Back
Fore
SplineSet
193 302 m 5,0,-1
 193 429 l 5,1,-1
 85 324 l 5,2,-1
 64 344 l 5,3,-1
 170 451 l 5,4,-1
 148 472 l 5,5,-1
 64 557 l 5,6,-1
 85 578 l 5,7,-1
 193 472 l 5,8,-1
 193 599 l 5,9,-1
 234 599 l 5,10,-1
 234 472 l 5,11,-1
 341 578 l 5,12,-1
 361 557 l 5,13,-1
 277 472 l 5,14,-1
 276 472 l 5,15,-1
 257 451 l 5,16,-1
 361 344 l 5,17,-1
 341 324 l 5,18,-1
 234 429 l 5,19,-1
 234 302 l 5,20,-1
 193 302 l 5,0,-1
EndSplineSet
EndChar

StartChar: plus
Encoding: 43 43 14
Width: 451
GlyphClass: 2
Flags: W
LayerCount: 2
Back
Fore
SplineSet
183 260 m 5,0,-1
 183 410 l 5,1,-1
 56 410 l 5,2,-1
 56 451 l 5,3,-1
 183 451 l 5,4,-1
 183 599 l 5,5,-1
 269 599 l 5,6,-1
 269 451 l 5,7,-1
 396 451 l 5,8,-1
 396 410 l 5,9,-1
 269 410 l 5,10,-1
 269 260 l 5,11,-1
 183 260 l 5,0,-1
EndSplineSet
EndChar

StartChar: comma
Encoding: 44 44 15
Width: 235
GlyphClass: 2
Flags: W
LayerCount: 2
Back
Fore
SplineSet
75 -85 m 5,0,-1
 117 -42 l 5,1,-1
 117 0 l 5,2,-1
 97 0 l 6,3,4
 87 0 87 0 81 5 c 4,5,6
 75 12 75 12 75 21 c 6,7,-1
 75 62 l 6,8,9
 75 71 75 71 81 79 c 4,10,11
 87 86 87 86 97 85 c 6,12,-1
 139 85 l 6,13,14
 147 85 147 85 154 79 c 4,15,16
 161 73 161 73 161 64 c 6,17,-1
 161 -42 l 5,18,-1
 117 -85 l 5,19,-1
 75 -85 l 5,0,-1
EndSplineSet
EndChar

StartChar: hyphen
Encoding: 45 45 16
Width: 481
GlyphClass: 2
Flags: W
LayerCount: 2
Back
Fore
SplineSet
71 251 m 1,0,-1
 71 293 l 1,1,-1
 411 293 l 1,2,-1
 411 251 l 1,3,-1
 71 251 l 1,0,-1
EndSplineSet
EndChar

StartChar: period
Encoding: 46 46 17
Width: 237
GlyphClass: 2
Flags: W
LayerCount: 2
Back
Fore
SplineSet
76 0 m 5,0,-1
 76 86 l 5,1,-1
 162 86 l 5,2,-1
 162 0 l 5,3,-1
 76 0 l 5,0,-1
EndSplineSet
EndChar

StartChar: slash
Encoding: 47 47 18
Width: 516
GlyphClass: 2
Flags: W
LayerCount: 2
Back
Fore
SplineSet
45 0 m 1,0,-1
 386 680 l 5,1,-1
 471 680 l 1,2,-1
 130 0 l 1,3,-1
 45 0 l 1,0,-1
EndSplineSet
EndChar

StartChar: zero
Encoding: 48 48 19
Width: 574
GlyphClass: 2
Flags: W
LayerCount: 2
Back
Fore
SplineSet
330 42 m 5,0,-1
 416 126 l 5,1,-1
 416 426 l 5,2,-1
 160 171 l 5,3,-1
 160 126 l 5,4,-1
 244 42 l 5,5,-1
 330 42 l 5,0,-1
160 255 m 5,6,-1
 416 510 l 5,7,-1
 416 553 l 5,8,-1
 330 638 l 5,9,-1
 244 638 l 5,10,-1
 160 553 l 5,11,-1
 160 255 l 5,6,-1
201 0 m 5,12,-1
 74 126 l 5,13,-1
 74 553 l 5,14,-1
 201 680 l 5,15,-1
 372 680 l 5,16,-1
 501 553 l 5,17,-1
 501 126 l 5,18,-1
 372 0 l 5,19,-1
 201 0 l 5,12,-1
EndSplineSet
EndChar

StartChar: one
Encoding: 49 49 20
Width: 297
GlyphClass: 2
Flags: W
LayerCount: 2
Back
Fore
SplineSet
130 0 m 5,0,-1
 130 553 l 5,1,-1
 45 553 l 5,2,-1
 173 680 l 5,3,-1
 215 680 l 5,4,-1
 215 0 l 5,5,-1
 130 0 l 5,0,-1
EndSplineSet
EndChar

StartChar: two
Encoding: 50 50 21
Width: 568
GlyphClass: 2
Flags: W
LayerCount: 2
Back
Fore
SplineSet
72 0 m 5,0,-1
 72 192 l 5,1,-1
 414 532 l 5,2,-1
 414 595 l 5,3,-1
 370 638 l 5,4,-1
 199 638 l 5,5,-1
 158 595 l 5,6,-1
 158 553 l 5,7,-1
 72 553 l 5,8,-1
 72 595 l 5,9,-1
 158 680 l 5,10,-1
 414 680 l 5,11,-1
 499 595 l 5,12,-1
 499 510 l 5,13,-1
 158 171 l 5,14,-1
 158 42 l 5,15,-1
 499 42 l 5,16,-1
 499 0 l 5,17,-1
 72 0 l 5,0,-1
EndSplineSet
EndChar

StartChar: three
Encoding: 51 51 22
Width: 563
GlyphClass: 2
Flags: W
LayerCount: 2
Back
Fore
SplineSet
147 0 m 5,0,-1
 61 85 l 5,1,-1
 147 85 l 5,2,-1
 188 42 l 5,3,-1
 359 42 l 5,4,-1
 403 85 l 5,5,-1
 403 255 l 5,6,-1
 338 319 l 5,7,-1
 231 319 l 5,8,-1
 231 360 l 5,9,-1
 338 360 l 5,10,-1
 403 426 l 5,11,-1
 403 595 l 5,12,-1
 359 638 l 5,13,-1
 188 638 l 5,14,-1
 147 595 l 5,15,-1
 147 553 l 5,16,-1
 61 553 l 5,17,-1
 61 595 l 5,18,-1
 147 680 l 5,19,-1
 403 680 l 5,20,-1
 488 595 l 5,21,-1
 488 426 l 5,22,-1
 403 341 l 5,23,-1
 488 255 l 5,24,-1
 488 85 l 5,25,-1
 403 0 l 5,26,-1
 147 0 l 5,0,-1
EndSplineSet
EndChar

StartChar: four
Encoding: 52 52 23
Width: 560
GlyphClass: 2
Flags: W
LayerCount: 2
Back
Fore
SplineSet
393 297 m 5,0,-1
 393 574 l 5,1,-1
 114 297 l 5,2,-1
 393 297 l 5,0,-1
393 0 m 5,3,-1
 393 255 l 5,4,-1
 51 255 l 5,5,-1
 51 297 l 5,6,-1
 434 680 l 5,7,-1
 478 680 l 5,8,-1
 478 0 l 5,9,-1
 393 0 l 5,3,-1
EndSplineSet
EndChar

StartChar: five
Encoding: 53 53 24
Width: 574
GlyphClass: 2
Flags: W
LayerCount: 2
Back
Fore
SplineSet
164 0 m 5,0,-1
 78 85 l 5,1,-1
 164 85 l 5,2,-1
 205 42 l 5,3,-1
 376 42 l 5,4,-1
 420 85 l 5,5,-1
 420 297 l 5,6,-1
 355 360 l 5,7,-1
 226 360 l 5,8,-1
 121 255 l 5,9,-1
 78 255 l 5,10,-1
 78 680 l 5,11,-1
 505 680 l 5,12,-1
 505 638 l 5,13,-1
 164 638 l 5,14,-1
 164 405 l 5,15,-1
 376 405 l 5,16,-1
 420 384 l 5,17,-1
 505 297 l 5,18,-1
 505 85 l 5,19,-1
 420 0 l 5,20,-1
 164 0 l 5,0,-1
EndSplineSet
EndChar

StartChar: six
Encoding: 54 54 25
Width: 576
GlyphClass: 2
Flags: W
LayerCount: 2
Back
Fore
SplineSet
376 42 m 5,0,-1
 420 85 l 5,1,-1
 420 297 l 5,2,-1
 355 360 l 5,3,-1
 226 360 l 5,4,-1
 164 297 l 5,5,-1
 164 85 l 5,6,-1
 205 42 l 5,7,-1
 376 42 l 5,0,-1
164 0 m 5,8,-1
 78 85 l 5,9,-1
 78 595 l 5,10,-1
 164 680 l 5,11,-1
 420 680 l 5,12,-1
 505 595 l 5,13,-1
 505 553 l 5,14,-1
 420 553 l 5,15,-1
 420 595 l 5,16,-1
 376 638 l 5,17,-1
 205 638 l 5,18,-1
 164 595 l 5,19,-1
 164 405 l 5,20,-1
 376 405 l 5,21,-1
 420 384 l 5,22,-1
 505 297 l 5,23,-1
 505 85 l 5,24,-1
 420 0 l 5,25,-1
 164 0 l 5,8,-1
EndSplineSet
EndChar

StartChar: seven
Encoding: 55 55 26
Width: 535
GlyphClass: 2
Flags: W
LayerCount: 2
Back
Fore
SplineSet
56 0 m 5,0,-1
 375 638 l 5,1,-1
 56 638 l 5,2,-1
 56 680 l 5,3,-1
 483 680 l 5,4,-1
 483 638 l 5,5,-1
 163 0 l 5,6,-1
 56 0 l 5,0,-1
EndSplineSet
EndChar

StartChar: eight
Encoding: 56 56 27
Width: 578
GlyphClass: 2
Flags: W
LayerCount: 2
Back
Fore
SplineSet
374 42 m 5,0,-1
 418 85 l 5,1,-1
 418 255 l 5,2,-1
 353 319 l 5,3,-1
 224 319 l 5,4,-1
 162 255 l 5,5,-1
 162 85 l 5,6,-1
 203 42 l 5,7,-1
 374 42 l 5,0,-1
353 360 m 5,8,-1
 418 426 l 5,9,-1
 418 595 l 5,10,-1
 374 638 l 5,11,-1
 203 638 l 5,12,-1
 162 595 l 5,13,-1
 162 426 l 5,14,-1
 224 360 l 5,15,-1
 353 360 l 5,8,-1
162 0 m 5,16,-1
 76 85 l 5,17,-1
 76 255 l 5,18,-1
 162 341 l 5,19,-1
 76 426 l 5,20,-1
 76 595 l 5,21,-1
 162 680 l 5,22,-1
 418 680 l 5,23,-1
 503 595 l 5,24,-1
 503 426 l 5,25,-1
 418 341 l 5,26,-1
 503 255 l 5,27,-1
 503 85 l 5,28,-1
 418 0 l 5,29,-1
 162 0 l 5,16,-1
EndSplineSet
EndChar

StartChar: nine
Encoding: 57 57 28
Width: 574
GlyphClass: 2
Flags: W
LayerCount: 2
Back
Fore
SplineSet
347 360 m 5,0,-1
 412 426 l 5,1,-1
 412 595 l 5,2,-1
 368 638 l 5,3,-1
 197 638 l 5,4,-1
 156 595 l 5,5,-1
 156 426 l 5,6,-1
 218 360 l 5,7,-1
 347 360 l 5,0,-1
156 0 m 5,8,-1
 70 85 l 5,9,-1
 156 85 l 5,10,-1
 197 42 l 5,11,-1
 368 42 l 5,12,-1
 412 85 l 5,13,-1
 412 319 l 5,14,-1
 197 319 l 5,15,-1
 156 341 l 5,16,-1
 70 426 l 5,17,-1
 70 595 l 5,18,-1
 156 680 l 5,19,-1
 412 680 l 5,20,-1
 497 595 l 5,21,-1
 497 85 l 5,22,-1
 412 0 l 5,23,-1
 156 0 l 5,8,-1
EndSplineSet
EndChar

StartChar: colon
Encoding: 58 58 29
Width: 240
GlyphClass: 2
Flags: W
LayerCount: 2
Back
Fore
SplineSet
100 1 m 6,0,1
 90 1 90 1 84 7 c 260,2,3
 78 13 78 13 78 22 c 6,4,-1
 78 64 l 6,5,6
 78 73 78 73 84 81 c 4,7,8
 90 87 90 87 100 86 c 6,9,-1
 141 86 l 6,10,11
 149 86 149 86 158 81 c 4,12,13
 165 74 165 74 164 66 c 6,14,-1
 164 22 l 6,15,16
 164 13 164 13 158 7 c 260,17,18
 151 1 151 1 141 1 c 6,19,-1
 100 1 l 6,0,1
100 341 m 6,20,21
 90 341 90 341 84 347 c 4,22,23
 78 354 78 354 78 363 c 6,24,-1
 78 405 l 6,25,26
 78 415 78 415 84 421 c 4,27,28
 90 428 90 428 100 427 c 6,29,-1
 141 427 l 6,30,31
 149 427 149 427 158 421 c 4,32,33
 165 415 165 415 164 406 c 6,34,-1
 164 363 l 6,35,36
 164 354 164 354 158 347 c 4,37,38
 151 342 151 342 141 341 c 6,39,-1
 100 341 l 6,20,21
EndSplineSet
EndChar

StartChar: semicolon
Encoding: 59 59 30
Width: 241
GlyphClass: 2
Flags: W
LayerCount: 2
Back
Fore
SplineSet
78 -85 m 5,0,-1
 121 -42 l 5,1,-1
 121 0 l 5,2,-1
 100 0 l 6,3,4
 90 0 90 0 84 5 c 4,5,6
 78 12 78 12 78 21 c 6,7,-1
 78 62 l 6,8,9
 78 72 78 72 84 79 c 4,10,11
 90 86 90 86 100 85 c 6,12,-1
 141 85 l 6,13,14
 149 85 149 85 158 79 c 4,15,16
 165 73 165 73 164 64 c 6,17,-1
 164 -42 l 5,18,-1
 121 -85 l 5,19,-1
 78 -85 l 5,0,-1
100 341 m 6,20,21
 90 341 90 341 84 345 c 260,22,23
 78 351 78 351 78 361 c 6,24,-1
 78 403 l 6,25,26
 78 412 78 412 84 418 c 4,27,28
 90 424 90 424 100 426 c 6,29,-1
 141 426 l 6,30,31
 149 426 149 426 158 418 c 4,32,33
 165 411 165 411 164 405 c 6,34,-1
 164 361 l 6,35,36
 164 351 164 351 158 345 c 260,37,38
 151 339 151 339 141 341 c 6,39,-1
 100 341 l 6,20,21
EndSplineSet
EndChar

StartChar: less
Encoding: 60 60 31
Width: 414
GlyphClass: 2
Flags: W
LayerCount: 2
Back
Fore
SplineSet
304 1 m 5,0,-1
 49 256 l 5,1,-1
 304 511 l 5,2,-1
 347 511 l 5,3,-1
 347 448 l 5,4,-1
 135 235 l 5,5,-1
 347 22 l 5,6,-1
 347 1 l 5,7,-1
 304 1 l 5,0,-1
EndSplineSet
EndChar

StartChar: equal
Encoding: 61 61 32
Width: 486
GlyphClass: 2
Flags: W
LayerCount: 2
Back
Fore
SplineSet
72 330 m 1,0,-1
 72 373 l 1,1,-1
 413 373 l 1,2,-1
 413 330 l 1,3,-1
 72 330 l 1,0,-1
72 458 m 1,4,-1
 72 500 l 5,5,-1
 413 500 l 1,6,-1
 413 458 l 1,7,-1
 72 458 l 1,4,-1
EndSplineSet
EndChar

StartChar: greater
Encoding: 62 62 33
Width: 413
GlyphClass: 2
Flags: W
LayerCount: 2
Back
Fore
SplineSet
66 1 m 5,0,-1
 66 64 l 5,1,-1
 279 277 l 5,2,-1
 66 490 l 5,3,-1
 66 511 l 5,4,-1
 109 511 l 5,5,-1
 364 256 l 5,6,-1
 109 1 l 5,7,-1
 66 1 l 5,0,-1
EndSplineSet
EndChar

StartChar: question
Encoding: 63 63 34
Width: 545
GlyphClass: 2
Flags: W
LayerCount: 2
Back
Fore
SplineSet
247 0 m 6,0,1
 237 0 237 0 230 5 c 4,2,3
 224 11 224 11 224 21 c 6,4,-1
 224 62 l 6,5,6
 224 71 224 71 230 79 c 260,7,8
 236 86 236 86 247 85 c 6,9,-1
 288 85 l 6,10,11
 296 85 296 85 303 79 c 260,12,13
 310 72 310 72 310 62 c 6,14,-1
 310 21 l 6,15,16
 310 11 310 11 303 5 c 4,17,18
 296 0 296 0 288 0 c 6,19,-1
 247 0 l 6,0,1
224 126 m 5,20,-1
 224 319 l 5,21,-1
 396 489 l 5,22,-1
 396 595 l 5,23,-1
 352 638 l 5,24,-1
 181 638 l 5,25,-1
 140 595 l 5,26,-1
 140 553 l 5,27,-1
 54 553 l 5,28,-1
 54 595 l 5,29,-1
 140 680 l 5,30,-1
 396 680 l 5,31,-1
 481 595 l 5,32,-1
 481 468 l 5,33,-1
 310 297 l 5,34,-1
 310 126 l 5,35,-1
 224 126 l 5,20,-1
EndSplineSet
EndChar

StartChar: at
Encoding: 64 64 35
Width: 568
GlyphClass: 2
Flags: W
LayerCount: 2
Back
Fore
SplineSet
330 128 m 1,0,-1
 330 384 l 1,1,-1
 286 384 l 1,2,-1
 243 341 l 1,3,-1
 243 171 l 1,4,-1
 286 128 l 1,5,-1
 330 128 l 1,0,-1
158 -42 m 1,6,-1
 73 42 l 1,7,-1
 73 470 l 1,8,-1
 158 554 l 1,9,-1
 414 554 l 1,10,-1
 499 470 l 1,11,-1
 499 128 l 1,12,-1
 456 86 l 1,13,-1
 243 86 l 1,14,-1
 200 128 l 1,15,-1
 200 384 l 1,16,-1
 243 426 l 1,17,-1
 330 426 l 1,18,-1
 371 384 l 1,19,-1
 371 128 l 1,20,-1
 414 128 l 1,21,-1
 414 470 l 1,22,-1
 371 511 l 1,23,-1
 200 511 l 1,24,-1
 158 470 l 1,25,-1
 158 42 l 1,26,-1
 200 1 l 1,27,-1
 371 1 l 1,28,-1
 414 42 l 1,29,-1
 499 42 l 1,30,-1
 414 -42 l 1,31,-1
 158 -42 l 1,6,-1
EndSplineSet
EndChar

StartChar: A
Encoding: 65 65 36
Width: 587
GlyphClass: 2
Flags: W
LayerCount: 2
Back
Fore
SplineSet
420 384 m 5,0,-1
 420 595 l 5,1,-1
 376 638 l 5,2,-1
 205 638 l 5,3,-1
 164 595 l 5,4,-1
 164 384 l 5,5,-1
 420 384 l 5,0,-1
78 0 m 5,6,-1
 78 595 l 5,7,-1
 164 680 l 5,8,-1
 420 680 l 5,9,-1
 505 595 l 5,10,-1
 505 0 l 5,11,-1
 420 0 l 5,12,-1
 420 341 l 5,13,-1
 164 341 l 5,14,-1
 164 0 l 5,15,-1
 78 0 l 5,6,-1
EndSplineSet
EndChar

StartChar: B
Encoding: 66 66 37
Width: 587
GlyphClass: 2
Flags: W
LayerCount: 2
Back
Fore
SplineSet
378 42 m 5,0,-1
 422 85 l 5,1,-1
 422 297 l 5,2,-1
 378 341 l 5,3,-1
 166 341 l 5,4,-1
 166 42 l 5,5,-1
 378 42 l 5,0,-1
378 384 m 5,6,-1
 422 426 l 5,7,-1
 422 595 l 5,8,-1
 378 638 l 5,9,-1
 166 638 l 5,10,-1
 166 384 l 5,11,-1
 378 384 l 5,6,-1
80 0 m 5,12,-1
 80 680 l 5,13,-1
 422 680 l 5,14,-1
 507 595 l 5,15,-1
 507 426 l 5,16,-1
 463 384 l 5,17,-1
 461 384 l 5,18,-1
 441 360 l 5,19,-1
 507 297 l 5,20,-1
 507 85 l 5,21,-1
 422 0 l 5,22,-1
 80 0 l 5,12,-1
EndSplineSet
EndChar

StartChar: C
Encoding: 67 67 38
Width: 576
GlyphClass: 2
Flags: W
LayerCount: 2
Back
Fore
SplineSet
161 0 m 5,0,-1
 75 85 l 5,1,-1
 75 595 l 5,2,-1
 161 680 l 5,3,-1
 417 680 l 5,4,-1
 502 595 l 5,5,-1
 502 553 l 5,6,-1
 417 553 l 5,7,-1
 417 595 l 5,8,-1
 373 638 l 5,9,-1
 202 638 l 5,10,-1
 161 595 l 5,11,-1
 161 85 l 5,12,-1
 202 42 l 5,13,-1
 373 42 l 5,14,-1
 417 85 l 5,15,-1
 417 126 l 5,16,-1
 502 126 l 5,17,-1
 502 85 l 5,18,-1
 417 0 l 5,19,-1
 161 0 l 5,0,-1
EndSplineSet
EndChar

StartChar: D
Encoding: 68 68 39
Width: 588
GlyphClass: 2
Flags: W
LayerCount: 2
Back
Fore
SplineSet
378 42 m 5,0,-1
 422 85 l 5,1,-1
 422 595 l 5,2,-1
 378 638 l 5,3,-1
 166 638 l 5,4,-1
 166 42 l 5,5,-1
 378 42 l 5,0,-1
80 0 m 5,6,-1
 80 680 l 5,7,-1
 422 680 l 5,8,-1
 507 595 l 5,9,-1
 507 85 l 5,10,-1
 422 0 l 5,11,-1
 80 0 l 5,6,-1
EndSplineSet
EndChar

StartChar: E
Encoding: 69 69 40
Width: 562
GlyphClass: 2
Flags: W
LayerCount: 2
Back
Fore
SplineSet
80 0 m 5,0,-1
 80 680 l 5,1,-1
 507 680 l 5,2,-1
 507 638 l 5,3,-1
 166 638 l 5,4,-1
 166 384 l 5,5,-1
 422 384 l 5,6,-1
 422 341 l 5,7,-1
 166 341 l 5,8,-1
 166 42 l 5,9,-1
 507 42 l 5,10,-1
 507 0 l 5,11,-1
 80 0 l 5,0,-1
EndSplineSet
EndChar

StartChar: F
Encoding: 70 70 41
Width: 553
VWidth: 1097
GlyphClass: 2
Flags: W
LayerCount: 2
Back
Fore
SplineSet
80 0 m 1,0,-1
 80 680 l 5,1,-1
 507 680 l 5,2,-1
 507 638 l 1,3,-1
 166 638 l 1,4,-1
 166 384 l 1,5,-1
 422 384 l 1,6,-1
 422 341 l 1,7,-1
 166 341 l 1,8,-1
 166 0 l 1,9,-1
 80 0 l 1,0,-1
EndSplineSet
EndChar

StartChar: G
Encoding: 71 71 42
Width: 581
VWidth: 1097
GlyphClass: 2
Flags: W
LayerCount: 2
Back
Fore
SplineSet
161 0 m 5,0,-1
 75 85 l 5,1,-1
 75 595 l 5,2,-1
 161 680 l 5,3,-1
 417 680 l 5,4,-1
 502 595 l 5,5,-1
 502 553 l 5,6,-1
 417 553 l 5,7,-1
 417 595 l 5,8,-1
 373 638 l 5,9,-1
 202 638 l 5,10,-1
 161 595 l 5,11,-1
 161 85 l 5,12,-1
 202 42 l 5,13,-1
 373 42 l 5,14,-1
 417 85 l 5,15,-1
 417 297 l 5,16,-1
 288 297 l 5,17,-1
 288 341 l 5,18,-1
 502 341 l 5,19,-1
 502 85 l 5,20,-1
 417 0 l 5,21,-1
 161 0 l 5,0,-1
EndSplineSet
EndChar

StartChar: H
Encoding: 72 72 43
Width: 590
VWidth: 1107
GlyphClass: 2
Flags: W
LayerCount: 2
Back
Fore
SplineSet
80 0 m 5,0,-1
 80 680 l 5,1,-1
 166 680 l 5,2,-1
 166 384 l 5,3,-1
 422 384 l 5,4,-1
 422 680 l 5,5,-1
 507 680 l 5,6,-1
 507 0 l 5,7,-1
 422 0 l 5,8,-1
 422 341 l 5,9,-1
 166 341 l 5,10,-1
 166 0 l 5,11,-1
 80 0 l 5,0,-1
EndSplineSet
EndChar

StartChar: I
Encoding: 73 73 44
Width: 249
VWidth: 1107
GlyphClass: 2
Flags: W
LayerCount: 2
Back
Fore
SplineSet
80 0 m 1,0,-1
 80 680 l 1,1,-1
 166 680 l 1,2,-1
 166 0 l 1,3,-1
 80 0 l 1,0,-1
EndSplineSet
EndChar

StartChar: J
Encoding: 74 74 45
Width: 571
VWidth: 1107
GlyphClass: 2
Flags: W
LayerCount: 2
Back
Fore
SplineSet
147 0 m 1,0,-1
 62 85 l 1,1,-1
 62 126 l 1,2,-1
 147 126 l 1,3,-1
 147 85 l 1,4,-1
 189 42 l 1,5,-1
 360 42 l 1,6,-1
 402 85 l 1,7,-1
 402 680 l 1,8,-1
 488 680 l 1,9,-1
 488 85 l 1,10,-1
 402 0 l 1,11,-1
 147 0 l 1,0,-1
EndSplineSet
EndChar

StartChar: K
Encoding: 75 75 46
Width: 559
VWidth: 1107
GlyphClass: 2
Flags: W
LayerCount: 2
Back
Fore
SplineSet
80 0 m 1,0,-1
 80 680 l 1,1,-1
 165 680 l 1,2,-1
 165 384 l 1,3,-1
 463 680 l 1,4,-1
 506 680 l 1,5,-1
 506 659 l 1,6,-1
 207 360 l 1,7,-1
 207 341 l 1,8,-1
 506 42 l 1,9,-1
 506 0 l 1,10,-1
 463 0 l 1,11,-1
 165 297 l 1,12,-1
 165 0 l 1,13,-1
 80 0 l 1,0,-1
EndSplineSet
EndChar

StartChar: L
Encoding: 76 76 47
Width: 557
VWidth: 1107
GlyphClass: 2
Flags: W
LayerCount: 2
Back
Fore
SplineSet
80 0 m 1,0,-1
 80 680 l 1,1,-1
 165 680 l 1,2,-1
 165 42 l 1,3,-1
 506 42 l 1,4,-1
 506 0 l 1,5,-1
 80 0 l 1,0,-1
EndSplineSet
EndChar

StartChar: M
Encoding: 77 77 48
Width: 673
VWidth: 1107
GlyphClass: 2
Flags: W
LayerCount: 2
Back
Fore
SplineSet
80 0 m 1,0,-1
 80 680 l 1,1,-1
 143 680 l 1,2,-1
 335 297 l 1,3,-1
 527 680 l 1,4,-1
 590 680 l 1,5,-1
 590 0 l 1,6,-1
 505 0 l 1,7,-1
 505 553 l 1,8,-1
 335 212 l 1,9,-1
 165 553 l 1,10,-1
 165 0 l 1,11,-1
 80 0 l 1,0,-1
EndSplineSet
EndChar

StartChar: N
Encoding: 78 78 49
Width: 589
VWidth: 1107
GlyphClass: 2
Flags: W
LayerCount: 2
Back
Fore
SplineSet
80 0 m 1,0,-1
 80 680 l 1,1,-1
 145 680 l 1,2,-1
 420 126 l 1,3,-1
 420 680 l 1,4,-1
 506 680 l 1,5,-1
 506 0 l 1,6,-1
 442 0 l 1,7,-1
 165 553 l 1,8,-1
 165 0 l 1,9,-1
 80 0 l 1,0,-1
EndSplineSet
EndChar

StartChar: O
Encoding: 79 79 50
Width: 582
VWidth: 1107
GlyphClass: 2
Flags: W
LayerCount: 2
Back
Fore
SplineSet
373 42 m 1,0,-1
 415 85 l 1,1,-1
 415 595 l 1,2,-1
 373 638 l 1,3,-1
 202 638 l 1,4,-1
 160 595 l 1,5,-1
 160 85 l 1,6,-1
 202 42 l 1,7,-1
 373 42 l 1,0,-1
160 0 m 1,8,-1
 75 85 l 1,9,-1
 75 595 l 1,10,-1
 160 680 l 1,11,-1
 415 680 l 1,12,-1
 501 595 l 1,13,-1
 501 85 l 1,14,-1
 415 0 l 1,15,-1
 160 0 l 1,8,-1
EndSplineSet
EndChar

StartChar: P
Encoding: 80 80 51
Width: 566
VWidth: 1107
GlyphClass: 2
Flags: W
LayerCount: 2
Back
Fore
SplineSet
378 384 m 1,0,-1
 420 426 l 1,1,-1
 420 595 l 1,2,-1
 378 638 l 1,3,-1
 165 638 l 1,4,-1
 165 384 l 1,5,-1
 378 384 l 1,0,-1
80 0 m 1,6,-1
 80 680 l 1,7,-1
 420 680 l 1,8,-1
 506 595 l 1,9,-1
 506 426 l 1,10,-1
 420 341 l 1,11,-1
 165 341 l 1,12,-1
 165 0 l 1,13,-1
 80 0 l 1,6,-1
EndSplineSet
EndChar

StartChar: Q
Encoding: 81 81 52
Width: 582
VWidth: 1107
GlyphClass: 2
Flags: W
LayerCount: 2
Back
Fore
SplineSet
373 53 m 1,0,-1
 415 94 l 1,1,-1
 415 606 l 1,2,-1
 373 648 l 1,3,-1
 202 648 l 1,4,-1
 160 606 l 1,5,-1
 160 94 l 1,6,-1
 202 53 l 1,7,-1
 373 53 l 1,0,-1
458 -74 m 1,8,-1
 373 10 l 1,9,-1
 160 10 l 1,10,-1
 75 94 l 1,11,-1
 75 606 l 1,12,-1
 160 692 l 1,13,-1
 415 692 l 1,14,-1
 501 606 l 1,15,-1
 501 94 l 1,16,-1
 415 10 l 1,17,-1
 501 -74 l 1,18,-1
 458 -74 l 1,8,-1
EndSplineSet
EndChar

StartChar: R
Encoding: 82 82 53
Width: 586
VWidth: 1107
GlyphClass: 2
Flags: W
LayerCount: 2
Back
Fore
SplineSet
378 384 m 1,0,-1
 420 426 l 1,1,-1
 420 595 l 1,2,-1
 378 638 l 1,3,-1
 165 638 l 1,4,-1
 165 384 l 1,5,-1
 378 384 l 1,0,-1
80 0 m 1,6,-1
 80 680 l 1,7,-1
 420 680 l 1,8,-1
 506 595 l 1,9,-1
 506 426 l 1,10,-1
 463 384 l 1,11,-1
 442 360 l 1,12,-1
 506 297 l 1,13,-1
 506 0 l 1,14,-1
 420 0 l 1,15,-1
 420 297 l 1,16,-1
 378 341 l 1,17,-1
 165 341 l 1,18,-1
 165 0 l 1,19,-1
 80 0 l 1,6,-1
EndSplineSet
EndChar

StartChar: S
Encoding: 83 83 54
Width: 567
VWidth: 1107
GlyphClass: 2
Flags: W
LayerCount: 2
Back
Fore
SplineSet
150 0 m 1,0,-1
 65 85 l 1,1,-1
 65 126 l 1,2,-1
 150 126 l 1,3,-1
 150 85 l 1,4,-1
 192 42 l 1,5,-1
 363 42 l 1,6,-1
 405 85 l 1,7,-1
 405 171 l 1,8,-1
 65 510 l 1,9,-1
 65 595 l 1,10,-1
 150 680 l 1,11,-1
 405 680 l 1,12,-1
 491 595 l 1,13,-1
 491 553 l 1,14,-1
 405 553 l 1,15,-1
 405 595 l 1,16,-1
 363 638 l 1,17,-1
 192 638 l 1,18,-1
 150 595 l 1,19,-1
 150 532 l 1,20,-1
 491 192 l 1,21,-1
 491 85 l 1,22,-1
 405 0 l 1,23,-1
 150 0 l 1,0,-1
EndSplineSet
EndChar

StartChar: T
Encoding: 84 84 55
Width: 511
VWidth: 1107
GlyphClass: 2
Flags: W
LayerCount: 2
Back
Fore
SplineSet
211 0 m 1,0,-1
 211 638 l 1,1,-1
 41 638 l 1,2,-1
 41 680 l 1,3,-1
 467 680 l 5,4,-1
 467 638 l 1,5,-1
 297 638 l 1,6,-1
 297 0 l 1,7,-1
 211 0 l 1,0,-1
EndSplineSet
EndChar

StartChar: U
Encoding: 85 85 56
Width: 587
VWidth: 1107
GlyphClass: 2
Flags: W
LayerCount: 2
Back
Fore
SplineSet
163 0 m 1,0,-1
 78 85 l 1,1,-1
 78 680 l 1,2,-1
 163 680 l 1,3,-1
 163 85 l 1,4,-1
 205 42 l 1,5,-1
 376 42 l 1,6,-1
 418 85 l 1,7,-1
 418 680 l 1,8,-1
 504 680 l 1,9,-1
 504 85 l 1,10,-1
 418 0 l 1,11,-1
 163 0 l 1,0,-1
EndSplineSet
EndChar

StartChar: V
Encoding: 86 86 57
Width: 553
VWidth: 1107
GlyphClass: 2
Flags: W
LayerCount: 2
Back
Fore
SplineSet
80 0 m 1,0,-1
 80 680 l 1,1,-1
 165 680 l 1,2,-1
 165 85 l 1,3,-1
 188 85 l 1,4,-1
 478 680 l 5,5,-1
 506 680 l 1,6,-1
 506 638 l 1,7,-1
 186 0 l 1,8,-1
 80 0 l 1,0,-1
EndSplineSet
EndChar

StartChar: W
Encoding: 87 87 58
Width: 808
VWidth: 1107
GlyphClass: 2
Flags: W
LayerCount: 2
Back
Fore
SplineSet
80 0 m 1,0,-1
 80 680 l 1,1,-1
 166 680 l 1,2,-1
 166 85 l 1,3,-1
 186 85 l 1,4,-1
 399 510 l 1,5,-1
 420 510 l 1,6,-1
 420 85 l 1,7,-1
 441 85 l 1,8,-1
 676 553 l 1,9,-1
 734 680 l 5,10,-1
 761 680 l 1,11,-1
 761 638 l 1,12,-1
 441 0 l 1,13,-1
 335 0 l 1,14,-1
 335 297 l 1,15,-1
 186 0 l 1,16,-1
 80 0 l 1,0,-1
EndSplineSet
EndChar

StartChar: X
Encoding: 88 88 59
Width: 584
VWidth: 1107
GlyphClass: 2
Flags: W
LayerCount: 2
Back
Fore
SplineSet
77 0 m 1,0,-1
 77 255 l 1,1,-1
 162 341 l 1,2,-1
 183 360 l 1,3,-1
 77 468 l 1,4,-1
 77 680 l 1,5,-1
 162 680 l 1,6,-1
 162 468 l 1,7,-1
 247 384 l 1,8,-1
 333 384 l 1,9,-1
 417 468 l 1,10,-1
 417 680 l 1,11,-1
 503 680 l 1,12,-1
 503 468 l 1,13,-1
 417 384 l 1,14,-1
 396 360 l 1,15,-1
 503 255 l 1,16,-1
 503 0 l 1,17,-1
 417 0 l 1,18,-1
 417 255 l 1,19,-1
 333 341 l 1,20,-1
 247 341 l 1,21,-1
 162 255 l 1,22,-1
 162 0 l 1,23,-1
 77 0 l 1,0,-1
EndSplineSet
EndChar

StartChar: Y
Encoding: 89 89 60
Width: 547
VWidth: 1107
GlyphClass: 2
Flags: W
LayerCount: 2
Back
Fore
SplineSet
166 0 m 1,0,-1
 166 42 l 1,1,-1
 295 42 l 1,2,-1
 379 126 l 1,3,-1
 379 255 l 1,4,-1
 252 255 l 1,5,-1
 39 680 l 1,6,-1
 124 680 l 1,7,-1
 316 297 l 1,8,-1
 379 297 l 1,9,-1
 379 680 l 1,10,-1
 465 680 l 1,11,-1
 465 126 l 1,12,-1
 337 0 l 1,13,-1
 166 0 l 1,0,-1
EndSplineSet
EndChar

StartChar: Z
Encoding: 90 90 61
Width: 532
VWidth: 1107
GlyphClass: 2
Flags: W
LayerCount: 2
Back
Fore
SplineSet
51 0 m 1,0,-1
 370 638 l 1,1,-1
 51 638 l 1,2,-1
 51 680 l 1,3,-1
 477 680 l 1,4,-1
 477 638 l 1,5,-1
 178 42 l 1,6,-1
 477 42 l 1,7,-1
 477 0 l 1,8,-1
 51 0 l 1,0,-1
EndSplineSet
EndChar

StartChar: bracketleft
Encoding: 91 91 62
Width: 304
GlyphClass: 2
Flags: W
LayerCount: 2
Back
Fore
SplineSet
82 -126 m 1,0,-1
 82 638 l 1,1,-1
 252 638 l 1,2,-1
 252 597 l 1,3,-1
 167 597 l 1,4,-1
 167 -85 l 1,5,-1
 252 -85 l 1,6,-1
 252 -126 l 1,7,-1
 82 -126 l 1,0,-1
EndSplineSet
EndChar

StartChar: backslash
Encoding: 92 92 63
Width: 514
GlyphClass: 2
Flags: W
LayerCount: 2
Back
Fore
SplineSet
390 -85 m 1,0,-1
 49 597 l 1,1,-1
 134 597 l 1,2,-1
 475 -85 l 1,3,-1
 390 -85 l 1,0,-1
EndSplineSet
EndChar

StartChar: bracketright
Encoding: 93 93 64
Width: 302
GlyphClass: 2
Flags: W
LayerCount: 2
Back
Fore
SplineSet
50 -126 m 1,0,-1
 50 -85 l 1,1,-1
 135 -85 l 1,2,-1
 135 597 l 1,3,-1
 50 597 l 1,4,-1
 50 638 l 1,5,-1
 220 638 l 1,6,-1
 220 -126 l 1,7,-1
 50 -126 l 1,0,-1
EndSplineSet
EndChar

StartChar: asciicircum
Encoding: 94 94 65
Width: 478
GlyphClass: 2
Flags: W
LayerCount: 2
Back
Fore
SplineSet
68 513 m 1,0,-1
 68 556 l 1,1,-1
 238 640 l 5,2,-1
 408 556 l 1,3,-1
 408 513 l 1,4,-1
 366 513 l 1,5,-1
 216 588 l 1,6,-1
 68 513 l 1,0,-1
EndSplineSet
EndChar

StartChar: underscore
Encoding: 95 95 66
Width: 679
GlyphClass: 2
Flags: W
LayerCount: 2
Back
Fore
SplineSet
84 -42 m 5,0,-1
 84 0 l 5,1,-1
 594 0 l 5,2,-1
 594 -42 l 5,3,-1
 84 -42 l 5,0,-1
EndSplineSet
EndChar

StartChar: grave
Encoding: 96 96 67
Width: 390
GlyphClass: 2
Flags: W
LayerCount: 2
Back
Fore
SplineSet
279 492 m 1,0,-1
 66 598 l 1,1,-1
 66 640 l 5,2,-1
 109 640 l 1,3,-1
 322 534 l 1,4,-1
 322 492 l 1,5,-1
 279 492 l 1,0,-1
EndSplineSet
EndChar

StartChar: a
Encoding: 97 97 68
Width: 570
GlyphClass: 2
Flags: W
LayerCount: 2
Back
Fore
SplineSet
406 44 m 5,0,-1
 406 171 l 5,1,-1
 193 171 l 5,2,-1
 150 128 l 5,3,-1
 150 86 l 5,4,-1
 193 44 l 5,5,-1
 406 44 l 5,0,-1
150 1 m 5,6,-1
 65 86 l 5,7,-1
 65 128 l 5,8,-1
 150 214 l 5,9,-1
 406 214 l 5,10,-1
 406 299 l 5,11,-1
 363 341 l 5,12,-1
 193 341 l 5,13,-1
 150 299 l 5,14,-1
 65 299 l 5,15,-1
 150 386 l 5,16,-1
 406 386 l 5,17,-1
 491 299 l 5,18,-1
 491 1 l 5,19,-1
 150 1 l 5,6,-1
EndSplineSet
EndChar

StartChar: b
Encoding: 98 98 69
Width: 584
GlyphClass: 2
Flags: W
LayerCount: 2
Back
Fore
SplineSet
378 42 m 5,0,-1
 422 85 l 5,1,-1
 422 297 l 5,2,-1
 378 341 l 5,3,-1
 166 341 l 5,4,-1
 166 42 l 5,5,-1
 378 42 l 5,0,-1
80 0 m 5,6,-1
 80 680 l 5,7,-1
 166 680 l 5,8,-1
 166 384 l 5,9,-1
 422 384 l 5,10,-1
 507 297 l 5,11,-1
 507 85 l 5,12,-1
 422 0 l 5,13,-1
 80 0 l 5,6,-1
EndSplineSet
EndChar

StartChar: c
Encoding: 99 99 70
Width: 565
GlyphClass: 2
Flags: W
LayerCount: 2
Back
Fore
SplineSet
155 1 m 5,0,-1
 70 86 l 5,1,-1
 70 299 l 5,2,-1
 155 386 l 5,3,-1
 411 386 l 5,4,-1
 496 299 l 5,5,-1
 411 299 l 5,6,-1
 368 341 l 5,7,-1
 198 341 l 5,8,-1
 155 299 l 5,9,-1
 155 86 l 5,10,-1
 198 44 l 5,11,-1
 368 44 l 5,12,-1
 411 86 l 5,13,-1
 496 86 l 5,14,-1
 411 1 l 5,15,-1
 155 1 l 5,0,-1
EndSplineSet
EndChar

StartChar: d
Encoding: 100 100 71
Width: 579
GlyphClass: 2
Flags: W
LayerCount: 2
Back
Fore
SplineSet
411 42 m 5,0,-1
 411 341 l 5,1,-1
 196 341 l 5,2,-1
 155 297 l 5,3,-1
 155 85 l 5,4,-1
 196 42 l 5,5,-1
 411 42 l 5,0,-1
155 0 m 5,6,-1
 69 85 l 5,7,-1
 69 297 l 5,8,-1
 155 384 l 5,9,-1
 411 384 l 5,10,-1
 411 680 l 5,11,-1
 496 680 l 5,12,-1
 496 0 l 5,13,-1
 155 0 l 5,6,-1
EndSplineSet
EndChar

StartChar: e
Encoding: 101 101 72
Width: 573
GlyphClass: 2
Flags: W
LayerCount: 2
Back
Fore
SplineSet
411 214 m 5,0,-1
 411 299 l 5,1,-1
 368 341 l 5,2,-1
 198 341 l 5,3,-1
 155 299 l 5,4,-1
 155 214 l 5,5,-1
 411 214 l 5,0,-1
155 1 m 5,6,-1
 70 86 l 5,7,-1
 70 299 l 5,8,-1
 155 386 l 5,9,-1
 411 386 l 5,10,-1
 496 299 l 5,11,-1
 496 171 l 5,12,-1
 155 171 l 5,13,-1
 155 86 l 5,14,-1
 198 44 l 5,15,-1
 368 44 l 5,16,-1
 411 86 l 5,17,-1
 496 86 l 5,18,-1
 411 1 l 5,19,-1
 155 1 l 5,6,-1
EndSplineSet
EndChar

StartChar: f
Encoding: 102 102 73
Width: 395
GlyphClass: 2
Flags: W
LayerCount: 2
Back
Fore
SplineSet
78 0 m 5,0,-1
 78 595 l 5,1,-1
 164 680 l 5,2,-1
 334 680 l 5,3,-1
 334 638 l 5,4,-1
 205 638 l 5,5,-1
 164 595 l 5,6,-1
 164 384 l 5,7,-1
 334 384 l 5,8,-1
 334 341 l 5,9,-1
 164 341 l 5,10,-1
 164 0 l 5,11,-1
 78 0 l 5,0,-1
EndSplineSet
EndChar

StartChar: g
Encoding: 103 103 74
Width: 577
GlyphClass: 2
Flags: W
LayerCount: 2
Back
Fore
SplineSet
412 44 m 5,0,-1
 412 341 l 5,1,-1
 197 341 l 5,2,-1
 156 300 l 5,3,-1
 156 86 l 5,4,-1
 197 44 l 5,5,-1
 412 44 l 5,0,-1
156 -169 m 5,6,-1
 156 -126 l 5,7,-1
 368 -126 l 5,8,-1
 412 -85 l 5,9,-1
 412 2 l 5,10,-1
 156 2 l 5,11,-1
 70 86 l 5,12,-1
 70 300 l 5,13,-1
 156 386 l 5,14,-1
 497 386 l 5,15,-1
 497 -85 l 5,16,-1
 412 -169 l 5,17,-1
 156 -169 l 5,6,-1
EndSplineSet
EndChar

StartChar: h
Encoding: 104 104 75
Width: 585
VWidth: 1107
GlyphClass: 2
Flags: W
LayerCount: 2
Back
Fore
SplineSet
80 0 m 1,0,-1
 80 680 l 1,1,-1
 165 680 l 1,2,-1
 165 384 l 1,3,-1
 421 384 l 1,4,-1
 506 297 l 1,5,-1
 506 0 l 1,6,-1
 421 0 l 1,7,-1
 421 297 l 1,8,-1
 378 341 l 1,9,-1
 165 341 l 1,10,-1
 165 0 l 1,11,-1
 80 0 l 1,0,-1
EndSplineSet
EndChar

StartChar: i
Encoding: 105 105 76
Width: 244
GlyphClass: 2
Flags: W
LayerCount: 2
Back
Fore
SplineSet
78 0 m 1,0,-1
 78 384 l 1,1,-1
 164 384 l 1,2,-1
 164 0 l 1,3,-1
 78 0 l 1,0,-1
100 426 m 6,4,5
 90 426 90 426 84 431 c 260,6,7
 78 437 78 437 78 446 c 6,8,-1
 78 488 l 6,9,10
 78 497 78 497 84 504 c 4,11,12
 90 510 90 510 100 510 c 6,13,-1
 141 510 l 6,14,15
 149 510 149 510 158 504 c 4,16,17
 165 497 165 497 164 489 c 6,18,-1
 164 446 l 6,19,20
 164 436 164 436 158 431 c 260,21,22
 151 425 151 425 141 426 c 6,23,-1
 100 426 l 6,4,5
EndSplineSet
EndChar

StartChar: j
Encoding: 106 106 77
Width: 328
GlyphClass: 2
Flags: W
LayerCount: 2
Back
Fore
SplineSet
32 -168 m 5,0,-1
 32 -126 l 5,1,-1
 118 -126 l 5,2,-1
 159 -83 l 5,3,-1
 159 386 l 5,4,-1
 245 386 l 5,5,-1
 245 -83 l 5,6,-1
 159 -168 l 5,7,-1
 32 -168 l 5,0,-1
210 426 m 6,8,9
 173 426 173 426 165 433 c 260,10,11
 159 439 159 439 159 450 c 6,12,-1
 159 491 l 6,13,14
 159 500 159 500 165 507 c 4,15,16
 171 513 171 513 180 513 c 6,17,-1
 223 513 l 6,18,19
 231 513 231 513 238 507 c 4,20,21
 244 500 244 500 245 492 c 6,22,-1
 245 450 l 6,23,24
 245 440 245 440 238 433 c 4,25,26
 245 429 245 429 253 426 c 6,27,-1
 210 426 l 6,8,9
EndSplineSet
EndChar

StartChar: k
Encoding: 107 107 78
Width: 569
VWidth: 1107
GlyphClass: 2
Flags: W
LayerCount: 2
Back
Fore
SplineSet
80 0 m 5,0,-1
 80 680 l 5,1,-1
 166 680 l 5,2,-1
 166 255 l 5,3,-1
 422 384 l 5,4,-1
 507 384 l 5,5,-1
 507 360 l 5,6,-1
 265 240 l 5,7,-1
 507 0 l 5,8,-1
 441 0 l 5,9,-1
 228 212 l 5,10,-1
 207 212 l 5,11,-1
 166 192 l 5,12,-1
 166 0 l 5,13,-1
 80 0 l 5,0,-1
EndSplineSet
EndChar

StartChar: l
Encoding: 108 108 79
Width: 295
VWidth: 1107
GlyphClass: 2
Flags: W
LayerCount: 2
Back
Fore
SplineSet
164 0 m 5,0,-1
 78 85 l 5,1,-1
 78 680 l 5,2,-1
 164 680 l 5,3,-1
 164 85 l 5,4,-1
 205 42 l 5,5,-1
 248 42 l 5,6,-1
 248 0 l 5,7,-1
 164 0 l 5,0,-1
EndSplineSet
EndChar

StartChar: m
Encoding: 109 109 80
Width: 666
GlyphClass: 2
Flags: W
LayerCount: 2
Back
Fore
SplineSet
77 1 m 5,0,-1
 77 386 l 5,1,-1
 289 386 l 5,2,-1
 332 341 l 5,3,-1
 375 386 l 5,4,-1
 503 386 l 5,5,-1
 587 299 l 5,6,-1
 587 1 l 5,7,-1
 503 1 l 5,8,-1
 503 299 l 5,9,-1
 461 341 l 5,10,-1
 418 341 l 5,11,-1
 375 299 l 5,12,-1
 375 1 l 5,13,-1
 289 1 l 5,14,-1
 289 299 l 5,15,-1
 248 341 l 5,16,-1
 162 341 l 5,17,-1
 162 1 l 5,18,-1
 77 1 l 5,0,-1
EndSplineSet
EndChar

StartChar: n
Encoding: 110 110 81
Width: 582
GlyphClass: 2
Flags: W
LayerCount: 2
Back
Fore
SplineSet
77 1 m 5,0,-1
 77 386 l 5,1,-1
 418 386 l 5,2,-1
 503 299 l 5,3,-1
 503 1 l 5,4,-1
 418 1 l 5,5,-1
 418 299 l 5,6,-1
 375 341 l 5,7,-1
 162 341 l 5,8,-1
 162 1 l 5,9,-1
 77 1 l 5,0,-1
EndSplineSet
EndChar

StartChar: o
Encoding: 111 111 82
Width: 574
GlyphClass: 2
Flags: W
LayerCount: 2
Back
Fore
SplineSet
368 44 m 5,0,-1
 411 86 l 5,1,-1
 411 299 l 5,2,-1
 368 341 l 5,3,-1
 198 341 l 5,4,-1
 155 299 l 5,5,-1
 155 86 l 5,6,-1
 198 44 l 5,7,-1
 368 44 l 5,0,-1
155 1 m 5,8,-1
 70 86 l 5,9,-1
 70 299 l 5,10,-1
 155 386 l 5,11,-1
 411 386 l 5,12,-1
 496 299 l 5,13,-1
 496 86 l 5,14,-1
 411 1 l 5,15,-1
 155 1 l 5,8,-1
EndSplineSet
EndChar

StartChar: p
Encoding: 112 112 83
Width: 582
GlyphClass: 2
Flags: W
LayerCount: 2
Back
Fore
SplineSet
375 44 m 5,0,-1
 419 86 l 5,1,-1
 419 300 l 5,2,-1
 375 341 l 5,3,-1
 163 341 l 5,4,-1
 163 44 l 5,5,-1
 375 44 l 5,0,-1
77 -169 m 5,6,-1
 77 386 l 5,7,-1
 419 386 l 5,8,-1
 504 300 l 5,9,-1
 504 86 l 5,10,-1
 419 2 l 5,11,-1
 163 2 l 5,12,-1
 163 -169 l 5,13,-1
 77 -169 l 5,6,-1
EndSplineSet
EndChar

StartChar: q
Encoding: 113 113 84
Width: 577
GlyphClass: 2
Flags: W
LayerCount: 2
Back
Fore
SplineSet
412 44 m 5,0,-1
 412 341 l 5,1,-1
 197 341 l 5,2,-1
 156 300 l 5,3,-1
 156 86 l 5,4,-1
 197 44 l 5,5,-1
 412 44 l 5,0,-1
412 -169 m 5,6,-1
 412 2 l 5,7,-1
 156 2 l 5,8,-1
 70 86 l 5,9,-1
 70 300 l 5,10,-1
 156 386 l 5,11,-1
 497 386 l 5,12,-1
 497 -169 l 5,13,-1
 412 -169 l 5,6,-1
EndSplineSet
EndChar

StartChar: r
Encoding: 114 114 85
Width: 568
GlyphClass: 2
Flags: W
LayerCount: 2
Back
Fore
SplineSet
77 1 m 5,0,-1
 77 386 l 5,1,-1
 418 386 l 5,2,-1
 503 299 l 5,3,-1
 418 299 l 5,4,-1
 375 341 l 5,5,-1
 162 341 l 5,6,-1
 162 1 l 5,7,-1
 77 1 l 5,0,-1
EndSplineSet
EndChar

StartChar: s
Encoding: 115 115 86
Width: 570
GlyphClass: 2
Flags: W
LayerCount: 2
Back
Fore
SplineSet
153 1 m 5,0,-1
 68 86 l 5,1,-1
 153 86 l 5,2,-1
 196 44 l 5,3,-1
 366 44 l 5,4,-1
 409 86 l 5,5,-1
 409 128 l 5,6,-1
 366 171 l 5,7,-1
 110 171 l 5,8,-1
 68 214 l 5,9,-1
 68 299 l 5,10,-1
 153 386 l 5,11,-1
 409 386 l 5,12,-1
 494 299 l 5,13,-1
 409 299 l 5,14,-1
 366 341 l 5,15,-1
 196 341 l 5,16,-1
 153 299 l 5,17,-1
 153 257 l 5,18,-1
 196 214 l 5,19,-1
 452 214 l 5,20,-1
 494 171 l 5,21,-1
 494 86 l 5,22,-1
 409 1 l 5,23,-1
 153 1 l 5,0,-1
EndSplineSet
EndChar

StartChar: t
Encoding: 116 116 87
Width: 349
GlyphClass: 2
Flags: W
LayerCount: 2
Back
Fore
SplineSet
161 1 m 5,0,-1
 75 86 l 5,1,-1
 75 470 l 5,2,-1
 161 470 l 5,3,-1
 161 384 l 5,4,-1
 288 384 l 5,5,-1
 288 341 l 5,6,-1
 161 341 l 5,7,-1
 161 86 l 5,8,-1
 202 42 l 5,9,-1
 288 42 l 5,10,-1
 288 1 l 5,11,-1
 161 1 l 5,0,-1
EndSplineSet
EndChar

StartChar: u
Encoding: 117 117 88
Width: 578
GlyphClass: 2
Flags: W
LayerCount: 2
Back
Fore
SplineSet
157 1 m 5,0,-1
 72 86 l 5,1,-1
 72 386 l 5,2,-1
 157 386 l 5,3,-1
 157 86 l 5,4,-1
 200 44 l 5,5,-1
 413 44 l 5,6,-1
 413 386 l 5,7,-1
 498 386 l 5,8,-1
 498 1 l 5,9,-1
 157 1 l 5,0,-1
EndSplineSet
EndChar

StartChar: v
Encoding: 118 118 89
Width: 511
GlyphClass: 2
Flags: W
LayerCount: 2
Back
Fore
SplineSet
158 1 m 5,0,-1
 72 86 l 5,1,-1
 72 386 l 5,2,-1
 158 386 l 5,3,-1
 158 86 l 5,4,-1
 200 44 l 5,5,-1
 243 44 l 5,6,-1
 413 386 l 5,7,-1
 456 386 l 5,8,-1
 264 1 l 5,9,-1
 158 1 l 5,0,-1
EndSplineSet
EndChar

StartChar: w
Encoding: 119 119 90
Width: 685
GlyphClass: 2
Flags: W
LayerCount: 2
Back
Fore
SplineSet
77 1 m 5,0,-1
 77 386 l 5,1,-1
 162 386 l 5,2,-1
 162 44 l 5,3,-1
 333 386 l 5,4,-1
 418 386 l 5,5,-1
 418 44 l 5,6,-1
 588 386 l 5,7,-1
 631 386 l 5,8,-1
 438 1 l 5,9,-1
 333 1 l 5,10,-1
 333 299 l 5,11,-1
 183 1 l 5,12,-1
 77 1 l 5,0,-1
EndSplineSet
EndChar

StartChar: x
Encoding: 120 120 91
Width: 577
GlyphClass: 2
Flags: W
LayerCount: 2
Back
Fore
SplineSet
74 1 m 5,0,-1
 74 128 l 5,1,-1
 159 214 l 5,2,-1
 74 299 l 5,3,-1
 74 386 l 5,4,-1
 159 386 l 5,5,-1
 159 299 l 5,6,-1
 223 236 l 5,7,-1
 351 236 l 5,8,-1
 415 299 l 5,9,-1
 415 386 l 5,10,-1
 500 386 l 5,11,-1
 500 299 l 5,12,-1
 415 214 l 5,13,-1
 500 128 l 5,14,-1
 500 1 l 5,15,-1
 415 1 l 5,16,-1
 415 128 l 5,17,-1
 351 193 l 5,18,-1
 223 193 l 5,19,-1
 159 128 l 5,20,-1
 159 1 l 5,21,-1
 74 1 l 5,0,-1
EndSplineSet
EndChar

StartChar: y
Encoding: 121 121 92
Width: 579
GlyphClass: 2
Flags: W
LayerCount: 2
Back
Fore
SplineSet
158 -169 m 5,0,-1
 158 -126 l 5,1,-1
 370 -126 l 5,2,-1
 414 -85 l 5,3,-1
 414 2 l 5,4,-1
 158 2 l 5,5,-1
 72 86 l 5,6,-1
 72 386 l 5,7,-1
 158 386 l 5,8,-1
 158 86 l 5,9,-1
 199 44 l 5,10,-1
 414 44 l 5,11,-1
 414 386 l 5,12,-1
 499 386 l 5,13,-1
 499 -85 l 5,14,-1
 414 -169 l 5,15,-1
 158 -169 l 5,0,-1
EndSplineSet
EndChar

StartChar: z
Encoding: 122 122 93
Width: 553
GlyphClass: 2
Flags: W
LayerCount: 2
Back
Fore
SplineSet
61 1 m 5,0,-1
 61 23 l 5,1,-1
 380 341 l 5,2,-1
 61 341 l 5,3,-1
 61 386 l 5,4,-1
 487 386 l 5,5,-1
 487 341 l 5,6,-1
 189 44 l 5,7,-1
 487 44 l 5,8,-1
 487 1 l 5,9,-1
 61 1 l 5,0,-1
EndSplineSet
EndChar

StartChar: braceleft
Encoding: 123 123 94
Width: 348
GlyphClass: 2
Flags: W
LayerCount: 2
Back
Fore
SplineSet
216 -42 m 5,0,-1
 130 42 l 5,1,-1
 130 255 l 5,2,-1
 44 341 l 5,3,-1
 130 426 l 5,4,-1
 130 638 l 5,5,-1
 216 724 l 5,6,-1
 300 724 l 5,7,-1
 300 680 l 5,8,-1
 257 680 l 5,9,-1
 216 638 l 5,10,-1
 216 426 l 5,11,-1
 130 341 l 5,12,-1
 216 255 l 5,13,-1
 216 42 l 5,14,-1
 257 0 l 5,15,-1
 300 0 l 5,16,-1
 300 -42 l 5,17,-1
 216 -42 l 5,0,-1
EndSplineSet
EndChar

StartChar: bar
Encoding: 124 124 95
Width: 251
GlyphClass: 2
Flags: W
LayerCount: 2
Back
Fore
SplineSet
83 -54 m 5,0,-1
 83 712 l 5,1,-1
 169 712 l 5,2,-1
 169 -54 l 5,3,-1
 83 -54 l 5,0,-1
EndSplineSet
EndChar

StartChar: braceright
Encoding: 125 125 96
Width: 346
GlyphClass: 2
Flags: W
LayerCount: 2
Back
Fore
SplineSet
46 -42 m 5,0,-1
 46 0 l 5,1,-1
 89 0 l 5,2,-1
 132 42 l 5,3,-1
 132 255 l 5,4,-1
 218 341 l 5,5,-1
 132 426 l 5,6,-1
 132 638 l 5,7,-1
 89 680 l 5,8,-1
 46 680 l 5,9,-1
 46 724 l 5,10,-1
 132 724 l 5,11,-1
 218 638 l 5,12,-1
 218 426 l 5,13,-1
 302 341 l 5,14,-1
 218 255 l 5,15,-1
 218 42 l 5,16,-1
 132 -42 l 5,17,-1
 46 -42 l 5,0,-1
EndSplineSet
EndChar

StartChar: asciitilde
Encoding: 126 126 97
Width: 514
GlyphClass: 2
Flags: W
LayerCount: 2
Back
Fore
SplineSet
322 335 m 5,0,-1
 173 410 l 5,1,-1
 66 356 l 5,2,-1
 66 397 l 5,3,-1
 193 461 l 5,4,-1
 343 386 l 5,5,-1
 451 442 l 5,6,-1
 451 397 l 5,7,-1
 322 335 l 5,0,-1
EndSplineSet
EndChar

StartChar: exclamdown
Encoding: 161 161 98
Width: 248
GlyphClass: 2
Flags: W
LayerCount: 2
Back
Fore
SplineSet
82 0 m 5,0,-1
 82 553 l 5,1,-1
 168 553 l 5,2,-1
 168 0 l 5,3,-1
 82 0 l 5,0,-1
104 595 m 6,4,5
 94 595 94 595 88 601 c 260,6,7
 82 607 82 607 82 617 c 6,8,-1
 82 659 l 6,9,10
 82 668 82 668 88 674 c 4,11,12
 94 680 94 680 104 680 c 6,13,-1
 145 680 l 6,14,15
 153 680 153 680 162 674 c 4,16,17
 169 667 169 667 168 659 c 6,18,-1
 168 617 l 6,19,20
 168 607 168 607 162 601 c 260,21,22
 155 595 155 595 145 595 c 6,23,-1
 104 595 l 6,4,5
EndSplineSet
EndChar

StartChar: cent
Encoding: 162 162 99
Width: 546
GlyphClass: 2
Flags: W
LayerCount: 2
Back
Fore
SplineSet
234 2 m 5,0,-1
 234 86 l 5,1,-1
 150 86 l 5,2,-1
 64 173 l 5,3,-1
 64 386 l 5,4,-1
 150 471 l 5,5,-1
 234 471 l 5,6,-1
 234 556 l 5,7,-1
 320 556 l 5,8,-1
 320 471 l 5,9,-1
 406 471 l 5,10,-1
 491 386 l 5,11,-1
 491 343 l 5,12,-1
 406 343 l 5,13,-1
 406 386 l 5,14,-1
 362 427 l 5,15,-1
 191 427 l 5,16,-1
 150 386 l 5,17,-1
 150 173 l 5,18,-1
 191 130 l 5,19,-1
 362 130 l 5,20,-1
 406 173 l 5,21,-1
 491 173 l 5,22,-1
 406 86 l 5,23,-1
 320 86 l 5,24,-1
 320 2 l 5,25,-1
 234 2 l 5,0,-1
EndSplineSet
EndChar

StartChar: sterling
Encoding: 163 163 100
Width: 454
GlyphClass: 2
Flags: W
LayerCount: 2
Back
Fore
SplineSet
49 0 m 5,0,-1
 49 42 l 5,1,-1
 135 42 l 5,2,-1
 135 341 l 5,3,-1
 91 341 l 5,4,-1
 91 384 l 5,5,-1
 135 384 l 5,6,-1
 135 595 l 5,7,-1
 219 680 l 5,8,-1
 389 680 l 5,9,-1
 389 638 l 5,10,-1
 262 638 l 5,11,-1
 219 595 l 5,12,-1
 219 384 l 5,13,-1
 389 384 l 5,14,-1
 389 341 l 5,15,-1
 219 341 l 5,16,-1
 219 42 l 5,17,-1
 389 42 l 5,18,-1
 389 0 l 5,19,-1
 49 0 l 5,0,-1
EndSplineSet
EndChar

StartChar: currency
Encoding: 164 164 101
Width: 478
GlyphClass: 2
Flags: W
LayerCount: 2
Back
Fore
SplineSet
281 264 m 1,0,-1
 281 433 l 1,1,-1
 194 433 l 1,2,-1
 194 264 l 1,3,-1
 281 264 l 1,0,-1
68 180 m 1,4,-1
 68 200 l 1,5,-1
 110 243 l 1,6,-1
 110 414 l 1,7,-1
 68 455 l 1,8,-1
 68 519 l 1,9,-1
 132 519 l 1,10,-1
 174 477 l 1,11,-1
 344 477 l 1,12,-1
 387 519 l 1,13,-1
 407 520 l 5,14,-1
 409 477 l 1,15,-1
 366 433 l 1,16,-1
 366 285 l 1,17,-1
 409 243 l 1,18,-1
 409 180 l 1,19,-1
 344 180 l 1,20,-1
 302 221 l 1,21,-1
 153 221 l 1,22,-1
 110 180 l 1,23,-1
 68 180 l 1,4,-1
EndSplineSet
EndChar

StartChar: yen
Encoding: 165 165 102
Width: 525
GlyphClass: 2
Flags: W
LayerCount: 2
Back
Fore
SplineSet
219 1 m 5,0,-1
 219 86 l 5,1,-1
 92 86 l 5,2,-1
 92 128 l 5,3,-1
 219 128 l 5,4,-1
 219 171 l 5,5,-1
 92 171 l 5,6,-1
 92 214 l 5,7,-1
 219 214 l 5,8,-1
 219 299 l 5,9,-1
 49 638 l 5,10,-1
 113 638 l 5,11,-1
 263 341 l 5,12,-1
 411 638 l 5,13,-1
 476 638 l 5,14,-1
 305 299 l 5,15,-1
 305 214 l 5,16,-1
 431 214 l 5,17,-1
 431 171 l 5,18,-1
 305 171 l 5,19,-1
 305 128 l 5,20,-1
 431 128 l 5,21,-1
 431 86 l 5,22,-1
 305 86 l 5,23,-1
 305 1 l 5,24,-1
 219 1 l 5,0,-1
EndSplineSet
EndChar

StartChar: brokenbar
Encoding: 166 166 103
Width: 251
GlyphClass: 2
Flags: W
LayerCount: 2
Back
Fore
SplineSet
83 -44 m 5,0,-1
 83 296 l 5,1,-1
 169 296 l 5,2,-1
 169 -44 l 5,3,-1
 83 -44 l 5,0,-1
83 382 m 5,4,-1
 83 722 l 5,5,-1
 169 722 l 5,6,-1
 169 382 l 5,7,-1
 83 382 l 5,4,-1
EndSplineSet
EndChar

StartChar: section
Encoding: 167 167 104
Width: 483
GlyphClass: 2
Flags: W
LayerCount: 2
Back
Fore
SplineSet
330 214 m 5,0,-1
 330 470 l 5,1,-1
 288 512 l 5,2,-1
 161 512 l 5,3,-1
 161 257 l 5,4,-1
 202 214 l 5,5,-1
 330 214 l 5,0,-1
161 -41 m 5,6,-1
 161 1 l 5,7,-1
 288 1 l 5,8,-1
 330 44 l 5,9,-1
 330 171 l 5,10,-1
 161 171 l 5,11,-1
 75 257 l 5,12,-1
 75 683 l 5,13,-1
 161 767 l 5,14,-1
 330 767 l 5,15,-1
 330 725 l 5,16,-1
 202 725 l 5,17,-1
 161 683 l 5,18,-1
 161 554 l 5,19,-1
 330 554 l 5,20,-1
 415 470 l 5,21,-1
 415 44 l 5,22,-1
 330 -41 l 5,23,-1
 161 -41 l 5,6,-1
EndSplineSet
EndChar

StartChar: dieresis
Encoding: 168 168 105
Width: 405
GlyphClass: 2
Flags: W
LayerCount: 2
Back
Fore
SplineSet
96 595 m 6,0,1
 86 595 86 595 80 599 c 260,2,3
 74 605 74 605 74 615 c 6,4,-1
 74 657 l 6,5,6
 74 666 74 666 80 672 c 260,7,8
 86 679 86 679 96 680 c 6,9,-1
 138 680 l 6,10,11
 146 680 146 680 153 672 c 4,12,13
 159 665 159 665 159 659 c 6,14,-1
 159 615 l 6,15,16
 159 605 159 605 153 599 c 4,17,18
 146 593 146 593 138 595 c 6,19,-1
 96 595 l 6,0,1
266 595 m 6,20,21
 257 595 257 595 249 599 c 4,22,23
 244 605 244 605 245 615 c 6,24,-1
 245 657 l 6,25,26
 245 666 245 666 249 672 c 4,27,28
 256 679 256 679 266 680 c 6,29,-1
 308 680 l 6,30,31
 316 680 316 680 323 672 c 260,32,33
 329 665 329 665 330 659 c 6,34,-1
 330 615 l 6,35,36
 330 605 330 605 323 599 c 260,37,38
 316 593 316 593 308 595 c 6,39,-1
 266 595 l 6,20,21
EndSplineSet
EndChar

StartChar: copyright
Encoding: 169 169 106
Width: 561
GlyphClass: 2
Flags: W
LayerCount: 2
Back
Fore
SplineSet
238 139 m 1,0,-1
 195 181 l 1,1,-1
 195 393 l 1,2,-1
 238 436 l 1,3,-1
 324 436 l 1,4,-1
 366 393 l 1,5,-1
 366 352 l 1,6,-1
 324 352 l 1,7,-1
 281 393 l 1,8,-1
 238 352 l 1,9,-1
 238 223 l 1,10,-1
 281 181 l 1,11,-1
 324 223 l 1,12,-1
 366 223 l 1,13,-1
 366 181 l 1,14,-1
 324 139 l 1,15,-1
 238 139 l 1,0,-1
366 94 m 1,16,-1
 410 139 l 1,17,-1
 410 436 l 1,18,-1
 366 479 l 1,19,-1
 195 479 l 1,20,-1
 154 436 l 1,21,-1
 154 139 l 1,22,-1
 195 94 l 1,23,-1
 366 94 l 1,16,-1
154 53 m 1,24,-1
 68 139 l 1,25,-1
 68 436 l 1,26,-1
 154 521 l 5,27,-1
 410 521 l 5,28,-1
 495 436 l 1,29,-1
 495 139 l 1,30,-1
 410 53 l 1,31,-1
 154 53 l 1,24,-1
EndSplineSet
EndChar

StartChar: ordfeminine
Encoding: 170 170 107
Width: 360
GlyphClass: 2
Flags: W
LayerCount: 2
Back
Fore
SplineSet
242 510 m 5,0,-1
 242 553 l 5,1,-1
 135 553 l 5,2,-1
 114 531 l 5,3,-1
 135 510 l 5,4,-1
 242 510 l 5,0,-1
114 468 m 5,5,-1
 72 510 l 5,6,-1
 72 553 l 5,7,-1
 114 595 l 5,8,-1
 242 595 l 5,9,-1
 199 638 l 5,10,-1
 72 638 l 5,11,-1
 72 680 l 5,12,-1
 242 680 l 5,13,-1
 285 638 l 5,14,-1
 285 468 l 5,15,-1
 114 468 l 5,5,-1
EndSplineSet
EndChar

StartChar: guillemotleft
Encoding: 171 171 108
Width: 474
GlyphClass: 2
Flags: W
LayerCount: 2
Back
Fore
SplineSet
184 1 m 5,0,-1
 56 256 l 5,1,-1
 162 470 l 5,2,-1
 248 470 l 5,3,-1
 120 214 l 5,4,-1
 227 1 l 5,5,-1
 184 1 l 5,0,-1
354 1 m 5,6,-1
 227 256 l 5,7,-1
 333 470 l 5,8,-1
 417 470 l 5,9,-1
 290 214 l 5,10,-1
 397 1 l 5,11,-1
 354 1 l 5,6,-1
EndSplineSet
EndChar

StartChar: logicalnot
Encoding: 172 172 109
Width: 651
GlyphClass: 2
Flags: W
LayerCount: 2
Back
Fore
SplineSet
489 32 m 1,0,-1
 489 245 l 1,1,-1
 66 245 l 1,2,-1
 66 288 l 1,3,-1
 574 288 l 1,4,-1
 574 32 l 1,5,-1
 489 32 l 1,0,-1
EndSplineSet
EndChar

StartChar: registered
Encoding: 174 174 110
Width: 561
GlyphClass: 2
Flags: W
LayerCount: 2
Back
Fore
SplineSet
324 307 m 5,0,-1
 324 350 l 5,1,-1
 281 393 l 5,2,-1
 238 393 l 5,3,-1
 238 307 l 5,4,-1
 324 307 l 5,0,-1
195 137 m 5,5,-1
 195 435 l 5,6,-1
 324 435 l 5,7,-1
 366 393 l 5,8,-1
 366 307 l 5,9,-1
 324 265 l 5,10,-1
 366 222 l 5,11,-1
 366 137 l 5,12,-1
 324 137 l 5,13,-1
 324 222 l 5,14,-1
 281 265 l 5,15,-1
 238 265 l 5,16,-1
 238 137 l 5,17,-1
 195 137 l 5,5,-1
366 94 m 5,18,-1
 410 137 l 5,19,-1
 410 435 l 5,20,-1
 366 478 l 5,21,-1
 195 478 l 5,22,-1
 154 435 l 5,23,-1
 154 137 l 5,24,-1
 195 94 l 5,25,-1
 366 94 l 5,18,-1
154 52 m 5,26,-1
 68 137 l 5,27,-1
 68 435 l 5,28,-1
 154 520 l 5,29,-1
 410 520 l 5,30,-1
 495 435 l 5,31,-1
 495 137 l 5,32,-1
 410 52 l 5,33,-1
 154 52 l 5,26,-1
EndSplineSet
EndChar

StartChar: macron
Encoding: 175 175 111
Width: 430
GlyphClass: 2
Flags: W
LayerCount: 2
Back
Fore
SplineSet
86 683 m 5,0,-1
 86 724 l 5,1,-1
 342 724 l 5,2,-1
 342 683 l 5,3,-1
 86 683 l 5,0,-1
EndSplineSet
EndChar

StartChar: degree
Encoding: 176 176 112
Width: 358
VWidth: 1163
GlyphClass: 2
Flags: W
LayerCount: 2
Back
Fore
SplineSet
199 510 m 5,0,-1
 242 553 l 5,1,-1
 242 595 l 5,2,-1
 199 638 l 5,3,-1
 158 638 l 5,4,-1
 114 595 l 5,5,-1
 114 553 l 5,6,-1
 158 510 l 5,7,-1
 199 510 l 5,0,-1
114 468 m 5,8,-1
 72 510 l 5,9,-1
 72 638 l 5,10,-1
 114 680 l 5,11,-1
 242 680 l 5,12,-1
 285 638 l 5,13,-1
 285 510 l 5,14,-1
 242 468 l 5,15,-1
 114 468 l 5,8,-1
EndSplineSet
EndChar

StartChar: plusminus
Encoding: 177 177 113
Width: 463
GlyphClass: 2
Flags: W
LayerCount: 2
Back
Fore
SplineSet
62 197 m 5,0,-1
 62 239 l 5,1,-1
 403 239 l 5,2,-1
 403 197 l 5,3,-1
 62 197 l 5,0,-1
188 261 m 5,4,-1
 188 410 l 5,5,-1
 62 410 l 5,6,-1
 62 452 l 5,7,-1
 188 452 l 5,8,-1
 188 601 l 5,9,-1
 275 601 l 5,10,-1
 275 452 l 5,11,-1
 403 452 l 5,12,-1
 403 410 l 5,13,-1
 275 410 l 5,14,-1
 275 261 l 5,15,-1
 188 261 l 5,4,-1
EndSplineSet
EndChar

StartChar: uni00B2
Encoding: 178 178 114
Width: 362
VWidth: 1163
GlyphClass: 2
Flags: W
LayerCount: 2
Back
Fore
SplineSet
74 468 m 5,0,-1
 74 553 l 5,1,-1
 116 595 l 5,2,-1
 244 595 l 5,3,-1
 201 638 l 5,4,-1
 74 638 l 5,5,-1
 74 680 l 5,6,-1
 244 680 l 5,7,-1
 287 638 l 5,8,-1
 287 553 l 5,9,-1
 137 553 l 5,10,-1
 116 531 l 5,11,-1
 137 510 l 5,12,-1
 287 510 l 5,13,-1
 287 468 l 5,14,-1
 74 468 l 5,0,-1
EndSplineSet
EndChar

StartChar: uni00B3
Encoding: 179 179 115
Width: 358
VWidth: 1163
GlyphClass: 2
Flags: W
LayerCount: 2
Back
Fore
SplineSet
72 468 m 5,0,-1
 72 510 l 5,1,-1
 199 510 l 5,2,-1
 242 553 l 5,3,-1
 114 553 l 5,4,-1
 114 595 l 5,5,-1
 242 595 l 5,6,-1
 199 638 l 5,7,-1
 72 638 l 5,8,-1
 72 680 l 5,9,-1
 242 680 l 5,10,-1
 285 638 l 5,11,-1
 285 595 l 5,12,-1
 283 595 l 5,13,-1
 263 574 l 5,14,-1
 285 553 l 5,15,-1
 285 510 l 5,16,-1
 242 468 l 5,17,-1
 72 468 l 5,0,-1
EndSplineSet
EndChar

StartChar: acute
Encoding: 180 180 116
Width: 388
GlyphClass: 2
Flags: W
LayerCount: 2
Back
Fore
SplineSet
66 493 m 5,0,-1
 66 535 l 5,1,-1
 279 640 l 5,2,-1
 322 640 l 5,3,-1
 322 598 l 5,4,-1
 109 493 l 5,5,-1
 66 493 l 5,0,-1
EndSplineSet
EndChar

StartChar: mu
Encoding: 181 181 117
Width: 585
GlyphClass: 2
Flags: W
LayerCount: 2
Back
Fore
SplineSet
80 -169 m 5,0,-1
 80 386 l 5,1,-1
 166 386 l 5,2,-1
 166 171 l 5,3,-1
 293 44 l 5,4,-1
 422 44 l 5,5,-1
 422 386 l 5,6,-1
 507 386 l 5,7,-1
 507 2 l 5,8,-1
 250 2 l 5,9,-1
 166 86 l 5,10,-1
 166 -169 l 5,11,-1
 80 -169 l 5,0,-1
EndSplineSet
EndChar

StartChar: paragraph
Encoding: 182 182 118
Width: 577
GlyphClass: 2
Flags: W
LayerCount: 2
Back
Fore
SplineSet
324 341 m 5,0,-1
 324 638 l 5,1,-1
 195 638 l 5,2,-1
 154 595 l 5,3,-1
 154 384 l 5,4,-1
 195 341 l 5,5,-1
 324 341 l 5,0,-1
324 0 m 5,6,-1
 324 297 l 5,7,-1
 154 297 l 5,8,-1
 68 384 l 5,9,-1
 68 595 l 5,10,-1
 154 680 l 5,11,-1
 366 680 l 5,12,-1
 366 0 l 5,13,-1
 324 0 l 5,6,-1
410 0 m 5,14,-1
 410 680 l 5,15,-1
 495 680 l 5,16,-1
 495 0 l 5,17,-1
 410 0 l 5,14,-1
EndSplineSet
EndChar

StartChar: periodcentered
Encoding: 183 183 119
Width: 228
GlyphClass: 2
Flags: W
LayerCount: 2
Back
Fore
SplineSet
94 213 m 2,0,1
 84 213 84 213 78 219 c 256,2,3
 72 225 72 225 72 235 c 2,4,-1
 72 276 l 2,5,6
 72 285 72 285 78 292 c 256,7,8
 84 299 84 299 94 299 c 2,9,-1
 136 299 l 2,10,11
 144 299 144 299 151 292 c 256,12,13
 158 285 158 285 157 277 c 2,14,-1
 157 235 l 2,15,16
 157 225 157 225 151 219 c 256,17,18
 144 213 144 213 136 213 c 2,19,-1
 94 213 l 2,0,1
EndSplineSet
EndChar

StartChar: cedilla
Encoding: 184 184 120
Width: 297
GlyphClass: 2
Flags: W
LayerCount: 2
Back
Fore
SplineSet
84 -147 m 5,0,-1
 84 -126 l 5,1,-1
 169 -85 l 5,2,-1
 169 -62 l 5,3,-1
 84 -21 l 5,4,-1
 84 0 l 5,5,-1
 127 0 l 5,6,-1
 212 -42 l 5,7,-1
 212 -106 l 5,8,-1
 127 -147 l 5,9,-1
 84 -147 l 5,0,-1
EndSplineSet
EndChar

StartChar: uni00B9
Encoding: 185 185 121
Width: 220
GlyphClass: 2
Flags: W
LayerCount: 2
Back
Fore
SplineSet
101 456 m 5,0,-1
 101 582 l 5,1,-1
 58 582 l 5,2,-1
 143 680 l 5,3,-1
 143 456 l 5,4,-1
 101 456 l 5,0,-1
EndSplineSet
EndChar

StartChar: ordmasculine
Encoding: 186 186 122
Width: 358
GlyphClass: 2
Flags: W
LayerCount: 2
Back
Fore
SplineSet
199 508 m 5,0,-1
 242 551 l 5,1,-1
 242 593 l 5,2,-1
 199 636 l 5,3,-1
 158 636 l 5,4,-1
 114 593 l 5,5,-1
 114 551 l 5,6,-1
 158 508 l 5,7,-1
 199 508 l 5,0,-1
114 466 m 5,8,-1
 72 508 l 5,9,-1
 72 636 l 5,10,-1
 114 679 l 5,11,-1
 242 679 l 5,12,-1
 285 636 l 5,13,-1
 285 508 l 5,14,-1
 242 466 l 5,15,-1
 114 466 l 5,8,-1
EndSplineSet
EndChar

StartChar: guillemotright
Encoding: 187 187 123
Width: 472
GlyphClass: 2
Flags: W
LayerCount: 2
Back
Fore
SplineSet
56 6 m 1,0,-1
 183 261 l 1,1,-1
 77 474 l 1,2,-1
 120 474 l 1,3,-1
 249 219 l 1,4,-1
 141 6 l 1,5,-1
 56 6 l 1,0,-1
226 6 m 1,6,-1
 354 261 l 1,7,-1
 249 474 l 1,8,-1
 290 474 l 1,9,-1
 417 219 l 1,10,-1
 311 6 l 1,11,-1
 226 6 l 1,6,-1
EndSplineSet
EndChar

StartChar: onequarter
Encoding: 188 188 124
Width: 562
GlyphClass: 2
Flags: W
LayerCount: 2
Back
Fore
SplineSet
429 85 m 5,0,-1
 429 171 l 5,1,-1
 343 85 l 5,2,-1
 429 85 l 5,0,-1
429 0 m 5,3,-1
 429 42 l 5,4,-1
 300 42 l 5,5,-1
 300 85 l 5,6,-1
 429 212 l 5,7,-1
 471 212 l 5,8,-1
 471 85 l 5,9,-1
 513 85 l 5,10,-1
 513 42 l 5,11,-1
 471 42 l 5,12,-1
 471 0 l 5,13,-1
 429 0 l 5,3,-1
130 468 m 5,14,-1
 130 595 l 5,15,-1
 87 595 l 5,16,-1
 173 680 l 5,17,-1
 173 468 l 5,18,-1
 130 468 l 5,14,-1
45 0 m 5,19,-1
 386 680 l 5,20,-1
 471 680 l 5,21,-1
 130 0 l 5,22,-1
 45 0 l 5,19,-1
EndSplineSet
EndChar

StartChar: onehalf
Encoding: 189 189 125
Width: 570
GlyphClass: 2
Flags: W
LayerCount: 2
Back
Fore
SplineSet
300 0 m 5,0,-1
 300 85 l 5,1,-1
 343 126 l 5,2,-1
 471 126 l 5,3,-1
 429 171 l 5,4,-1
 300 171 l 5,5,-1
 300 212 l 5,6,-1
 471 212 l 5,7,-1
 513 171 l 5,8,-1
 513 85 l 5,9,-1
 364 85 l 5,10,-1
 343 62 l 5,11,-1
 364 42 l 5,12,-1
 513 42 l 5,13,-1
 513 0 l 5,14,-1
 300 0 l 5,0,-1
130 468 m 5,15,-1
 130 595 l 5,16,-1
 87 595 l 5,17,-1
 173 680 l 5,18,-1
 173 468 l 5,19,-1
 130 468 l 5,15,-1
45 0 m 5,20,-1
 386 680 l 5,21,-1
 471 680 l 5,22,-1
 130 0 l 5,23,-1
 45 0 l 5,20,-1
EndSplineSet
EndChar

StartChar: threequarters
Encoding: 190 190 126
Width: 581
GlyphClass: 2
Flags: W
LayerCount: 2
Back
Fore
SplineSet
447 85 m 5,0,-1
 447 171 l 5,1,-1
 362 85 l 5,2,-1
 447 85 l 5,0,-1
447 0 m 5,3,-1
 447 42 l 5,4,-1
 319 42 l 5,5,-1
 319 85 l 5,6,-1
 447 212 l 5,7,-1
 491 212 l 5,8,-1
 491 85 l 5,9,-1
 532 85 l 5,10,-1
 532 42 l 5,11,-1
 491 42 l 5,12,-1
 491 0 l 5,13,-1
 447 0 l 5,3,-1
64 468 m 5,14,-1
 64 510 l 5,15,-1
 191 510 l 5,16,-1
 234 553 l 5,17,-1
 106 553 l 5,18,-1
 106 595 l 5,19,-1
 234 595 l 5,20,-1
 191 638 l 5,21,-1
 64 638 l 5,22,-1
 64 680 l 5,23,-1
 234 680 l 5,24,-1
 277 638 l 5,25,-1
 277 595 l 5,26,-1
 275 595 l 5,27,-1
 255 574 l 5,28,-1
 277 553 l 5,29,-1
 277 510 l 5,30,-1
 234 468 l 5,31,-1
 64 468 l 5,14,-1
64 0 m 5,32,-1
 404 680 l 5,33,-1
 491 680 l 5,34,-1
 150 0 l 5,35,-1
 64 0 l 5,32,-1
EndSplineSet
EndChar

StartChar: questiondown
Encoding: 191 191 127
Width: 536
GlyphClass: 2
Flags: W
LayerCount: 2
Back
Fore
SplineSet
146 0 m 5,0,-1
 60 85 l 5,1,-1
 60 212 l 5,2,-1
 230 384 l 5,3,-1
 230 553 l 5,4,-1
 316 553 l 5,5,-1
 316 360 l 5,6,-1
 146 192 l 5,7,-1
 146 85 l 5,8,-1
 187 42 l 5,9,-1
 358 42 l 5,10,-1
 402 85 l 5,11,-1
 402 126 l 5,12,-1
 487 126 l 5,13,-1
 487 85 l 5,14,-1
 402 0 l 5,15,-1
 146 0 l 5,0,-1
253 595 m 6,16,17
 243 595 243 595 236 601 c 260,18,19
 230 607 230 607 230 617 c 6,20,-1
 230 659 l 6,21,22
 230 668 230 668 236 674 c 4,23,24
 242 680 242 680 253 680 c 6,25,-1
 294 680 l 6,26,27
 302 680 302 680 309 674 c 4,28,29
 316 667 316 667 316 659 c 6,30,-1
 316 617 l 6,31,32
 316 607 316 607 309 601 c 260,33,34
 302 595 302 595 294 595 c 6,35,-1
 253 595 l 6,16,17
EndSplineSet
EndChar

StartChar: Agrave
Encoding: 192 192 128
Width: 586
GlyphClass: 2
Flags: W
LayerCount: 2
Back
Fore
SplineSet
420 386 m 5,0,-1
 420 598 l 5,1,-1
 376 640 l 5,2,-1
 205 640 l 5,3,-1
 164 598 l 5,4,-1
 164 386 l 5,5,-1
 420 386 l 5,0,-1
78 3 m 5,6,-1
 78 598 l 5,7,-1
 164 683 l 5,8,-1
 420 683 l 5,9,-1
 505 598 l 5,10,-1
 505 3 l 5,11,-1
 420 3 l 5,12,-1
 420 343 l 5,13,-1
 164 343 l 5,14,-1
 164 3 l 5,15,-1
 78 3 l 5,6,-1
376 726 m 5,16,-1
 164 832 l 5,17,-1
 164 875 l 5,18,-1
 205 875 l 5,19,-1
 420 769 l 5,20,-1
 420 726 l 5,21,-1
 376 726 l 5,16,-1
EndSplineSet
EndChar

StartChar: Aacute
Encoding: 193 193 129
Width: 585
GlyphClass: 2
Flags: W
LayerCount: 2
Back
Fore
SplineSet
419 386 m 5,0,-1
 419 598 l 5,1,-1
 376 640 l 5,2,-1
 206 640 l 5,3,-1
 163 598 l 5,4,-1
 163 386 l 5,5,-1
 419 386 l 5,0,-1
78 3 m 5,6,-1
 78 598 l 5,7,-1
 163 683 l 5,8,-1
 419 683 l 5,9,-1
 504 598 l 5,10,-1
 504 3 l 5,11,-1
 419 3 l 5,12,-1
 419 343 l 5,13,-1
 163 343 l 5,14,-1
 163 3 l 5,15,-1
 78 3 l 5,6,-1
163 726 m 5,16,-1
 163 769 l 5,17,-1
 376 875 l 5,18,-1
 419 875 l 5,19,-1
 419 832 l 5,20,-1
 206 726 l 5,21,-1
 163 726 l 5,16,-1
EndSplineSet
EndChar

StartChar: Acircumflex
Encoding: 194 194 130
Width: 586
GlyphClass: 2
Flags: W
LayerCount: 2
Back
Fore
SplineSet
420 384 m 5,0,-1
 420 597 l 5,1,-1
 376 640 l 5,2,-1
 205 640 l 5,3,-1
 164 597 l 5,4,-1
 164 384 l 5,5,-1
 420 384 l 5,0,-1
78 1 m 5,6,-1
 78 597 l 5,7,-1
 164 683 l 5,8,-1
 420 683 l 5,9,-1
 505 597 l 5,10,-1
 505 1 l 5,11,-1
 420 1 l 5,12,-1
 420 341 l 5,13,-1
 164 341 l 5,14,-1
 164 1 l 5,15,-1
 78 1 l 5,6,-1
121 725 m 5,16,-1
 121 767 l 5,17,-1
 291 853 l 5,18,-1
 461 767 l 5,19,-1
 461 725 l 5,20,-1
 420 725 l 5,21,-1
 271 799 l 5,22,-1
 121 725 l 5,16,-1
EndSplineSet
EndChar

StartChar: Atilde
Encoding: 195 195 131
Width: 586
GlyphClass: 2
Flags: W
LayerCount: 2
Back
Fore
SplineSet
420 384 m 5,0,-1
 420 597 l 5,1,-1
 376 640 l 5,2,-1
 205 640 l 5,3,-1
 164 597 l 5,4,-1
 164 384 l 5,5,-1
 420 384 l 5,0,-1
78 1 m 5,6,-1
 78 597 l 5,7,-1
 164 683 l 5,8,-1
 420 683 l 5,9,-1
 505 597 l 5,10,-1
 505 1 l 5,11,-1
 420 1 l 5,12,-1
 420 341 l 5,13,-1
 164 341 l 5,14,-1
 164 1 l 5,15,-1
 78 1 l 5,6,-1
355 725 m 5,16,-1
 205 799 l 5,17,-1
 99 746 l 5,18,-1
 99 789 l 5,19,-1
 226 853 l 5,20,-1
 376 778 l 5,21,-1
 484 831 l 5,22,-1
 484 789 l 5,23,-1
 355 725 l 5,16,-1
EndSplineSet
EndChar

StartChar: Adieresis
Encoding: 196 196 132
Width: 586
GlyphClass: 2
Flags: W
LayerCount: 2
Back
Fore
SplineSet
420 384 m 5,0,-1
 420 597 l 5,1,-1
 376 638 l 5,2,-1
 205 638 l 5,3,-1
 164 597 l 5,4,-1
 164 384 l 5,5,-1
 420 384 l 5,0,-1
78 1 m 5,6,-1
 78 597 l 5,7,-1
 164 683 l 5,8,-1
 420 683 l 5,9,-1
 505 597 l 5,10,-1
 505 1 l 5,11,-1
 420 1 l 5,12,-1
 420 341 l 5,13,-1
 164 341 l 5,14,-1
 164 1 l 5,15,-1
 78 1 l 5,6,-1
185 724 m 6,16,17
 175 724 175 724 169 730 c 260,18,19
 163 736 163 736 164 745 c 6,20,-1
 164 787 l 6,21,22
 164 796 164 796 169 803 c 4,23,24
 175 809 175 809 185 809 c 6,25,-1
 226 809 l 6,26,27
 234 809 234 809 243 803 c 4,28,29
 249 796 249 796 248 788 c 6,30,-1
 248 745 l 6,31,32
 248 736 248 736 243 730 c 4,33,34
 236 724 236 724 226 724 c 6,35,-1
 185 724 l 6,16,17
355 724 m 6,36,37
 346 724 346 724 339 730 c 4,38,39
 334 736 334 736 334 745 c 6,40,-1
 334 787 l 6,41,42
 334 796 334 796 339 803 c 4,43,44
 346 809 346 809 355 809 c 6,45,-1
 397 809 l 6,46,47
 405 809 405 809 411 803 c 4,48,49
 418 796 418 796 420 788 c 6,50,-1
 420 745 l 6,51,52
 420 736 420 736 411 730 c 260,53,54
 404 724 404 724 397 724 c 6,55,-1
 355 724 l 6,36,37
EndSplineSet
EndChar

StartChar: Aring
Encoding: 197 197 133
Width: 585
GlyphClass: 2
Flags: W
LayerCount: 2
Back
Fore
SplineSet
419 384 m 5,0,-1
 419 597 l 5,1,-1
 376 640 l 5,2,-1
 206 640 l 5,3,-1
 163 597 l 5,4,-1
 163 384 l 5,5,-1
 419 384 l 5,0,-1
78 1 m 5,6,-1
 78 597 l 5,7,-1
 163 683 l 5,8,-1
 419 683 l 5,9,-1
 504 597 l 5,10,-1
 504 1 l 5,11,-1
 419 1 l 5,12,-1
 419 341 l 5,13,-1
 163 341 l 5,14,-1
 163 1 l 5,15,-1
 78 1 l 5,6,-1
312 746 m 5,16,-1
 355 767 l 5,17,-1
 355 810 l 5,18,-1
 312 831 l 5,19,-1
 270 831 l 5,20,-1
 227 810 l 5,21,-1
 227 767 l 5,22,-1
 270 746 l 5,23,-1
 312 746 l 5,16,-1
227 725 m 5,24,-1
 184 746 l 5,25,-1
 184 831 l 5,26,-1
 227 853 l 5,27,-1
 355 853 l 5,28,-1
 397 831 l 5,29,-1
 397 746 l 5,30,-1
 355 725 l 5,31,-1
 227 725 l 5,24,-1
EndSplineSet
EndChar

StartChar: AE
Encoding: 198 198 134
Width: 739
GlyphClass: 2
Flags: W
LayerCount: 2
Back
Fore
SplineSet
333 384 m 1,0,-1
 333 638 l 1,1,-1
 205 638 l 1,2,-1
 164 595 l 1,3,-1
 164 384 l 1,4,-1
 333 384 l 1,0,-1
78 0 m 1,5,-1
 78 595 l 1,6,-1
 164 680 l 1,7,-1
 674 680 l 1,8,-1
 674 638 l 1,9,-1
 420 638 l 1,10,-1
 420 384 l 1,11,-1
 674 384 l 1,12,-1
 674 341 l 1,13,-1
 420 341 l 1,14,-1
 420 42 l 1,15,-1
 674 42 l 1,16,-1
 674 0 l 1,17,-1
 333 0 l 1,18,-1
 333 341 l 1,19,-1
 164 341 l 1,20,-1
 164 0 l 1,21,-1
 78 0 l 1,5,-1
EndSplineSet
EndChar

StartChar: Ccedilla
Encoding: 199 199 135
Width: 568
GlyphClass: 2
Flags: W
LayerCount: 2
Back
Fore
SplineSet
245 -149 m 5,0,-1
 245 -128 l 5,1,-1
 331 -85 l 5,2,-1
 331 -64 l 5,3,-1
 245 -21 l 5,4,-1
 245 0 l 5,5,-1
 161 0 l 5,6,-1
 75 85 l 5,7,-1
 75 597 l 5,8,-1
 161 681 l 5,9,-1
 417 681 l 5,10,-1
 502 597 l 5,11,-1
 502 553 l 5,12,-1
 417 553 l 5,13,-1
 417 597 l 5,14,-1
 373 638 l 5,15,-1
 202 638 l 5,16,-1
 161 597 l 5,17,-1
 161 85 l 5,18,-1
 202 42 l 5,19,-1
 373 42 l 5,20,-1
 417 85 l 5,21,-1
 502 85 l 5,22,-1
 417 0 l 5,23,-1
 288 0 l 5,24,-1
 373 -42 l 5,25,-1
 373 -106 l 5,26,-1
 288 -149 l 5,27,-1
 245 -149 l 5,0,-1
EndSplineSet
EndChar

StartChar: Egrave
Encoding: 200 200 136
Width: 561
GlyphClass: 2
Flags: W
LayerCount: 2
Back
Fore
SplineSet
80 3 m 5,0,-1
 80 683 l 5,1,-1
 506 683 l 5,2,-1
 506 640 l 5,3,-1
 165 640 l 5,4,-1
 165 386 l 5,5,-1
 421 386 l 5,6,-1
 421 343 l 5,7,-1
 165 343 l 5,8,-1
 165 45 l 5,9,-1
 506 45 l 5,10,-1
 506 3 l 5,11,-1
 80 3 l 5,0,-1
378 726 m 5,12,-1
 165 832 l 5,13,-1
 165 875 l 5,14,-1
 208 875 l 5,15,-1
 421 769 l 5,16,-1
 421 726 l 5,17,-1
 378 726 l 5,12,-1
EndSplineSet
EndChar

StartChar: Eacute
Encoding: 201 201 137
Width: 561
GlyphClass: 2
Flags: W
LayerCount: 2
Back
Fore
SplineSet
80 3 m 5,0,-1
 80 683 l 5,1,-1
 506 683 l 5,2,-1
 506 640 l 5,3,-1
 165 640 l 5,4,-1
 165 386 l 5,5,-1
 421 386 l 5,6,-1
 421 343 l 5,7,-1
 165 343 l 5,8,-1
 165 45 l 5,9,-1
 506 45 l 5,10,-1
 506 3 l 5,11,-1
 80 3 l 5,0,-1
165 726 m 5,12,-1
 165 769 l 5,13,-1
 378 875 l 5,14,-1
 421 875 l 5,15,-1
 421 832 l 5,16,-1
 208 726 l 5,17,-1
 165 726 l 5,12,-1
EndSplineSet
EndChar

StartChar: Ecircumflex
Encoding: 202 202 138
Width: 561
GlyphClass: 2
Flags: W
LayerCount: 2
Back
Fore
SplineSet
80 1 m 5,0,-1
 80 683 l 5,1,-1
 506 683 l 5,2,-1
 506 640 l 5,3,-1
 165 640 l 5,4,-1
 165 384 l 5,5,-1
 421 384 l 5,6,-1
 421 341 l 5,7,-1
 165 341 l 5,8,-1
 165 44 l 5,9,-1
 506 44 l 5,10,-1
 506 1 l 5,11,-1
 80 1 l 5,0,-1
122 725 m 5,12,-1
 122 767 l 5,13,-1
 293 853 l 5,14,-1
 464 767 l 5,15,-1
 464 725 l 5,16,-1
 421 725 l 5,17,-1
 272 799 l 5,18,-1
 122 725 l 5,12,-1
EndSplineSet
EndChar

StartChar: Edieresis
Encoding: 203 203 139
Width: 562
GlyphClass: 2
Flags: W
LayerCount: 2
Back
Fore
SplineSet
80 0 m 5,0,-1
 80 681 l 5,1,-1
 507 681 l 5,2,-1
 507 638 l 5,3,-1
 166 638 l 5,4,-1
 166 384 l 5,5,-1
 422 384 l 5,6,-1
 422 341 l 5,7,-1
 166 341 l 5,8,-1
 166 42 l 5,9,-1
 507 42 l 5,10,-1
 507 0 l 5,11,-1
 80 0 l 5,0,-1
187 724 m 6,12,13
 177 724 177 724 171 729 c 260,14,15
 165 735 165 735 166 744 c 6,16,-1
 166 786 l 6,17,18
 166 795 166 795 171 802 c 4,19,20
 177 808 177 808 187 808 c 6,21,-1
 228 808 l 6,22,23
 236 808 236 808 245 802 c 4,24,25
 251 795 251 795 250 787 c 6,26,-1
 250 744 l 6,27,28
 250 735 250 735 245 729 c 4,29,30
 238 723 238 723 228 724 c 6,31,-1
 187 724 l 6,12,13
357 724 m 6,32,33
 348 724 348 724 341 729 c 4,34,35
 336 735 336 735 336 744 c 6,36,-1
 336 786 l 6,37,38
 336 795 336 795 341 802 c 4,39,40
 348 808 348 808 357 808 c 6,41,-1
 399 808 l 6,42,43
 407 808 407 808 413 802 c 4,44,45
 420 795 420 795 422 787 c 6,46,-1
 422 744 l 6,47,48
 422 735 422 735 413 729 c 260,49,50
 406 723 406 723 399 724 c 6,51,-1
 357 724 l 6,32,33
EndSplineSet
EndChar

StartChar: Igrave
Encoding: 204 204 140
Width: 323
GlyphClass: 2
Flags: W
LayerCount: 2
Back
Fore
SplineSet
118 0 m 5,0,-1
 118 681 l 5,1,-1
 204 681 l 5,2,-1
 204 0 l 5,3,-1
 118 0 l 5,0,-1
245 681 m 5,4,-1
 32 787 l 5,5,-1
 32 830 l 5,6,-1
 75 830 l 5,7,-1
 288 724 l 5,8,-1
 288 681 l 5,9,-1
 245 681 l 5,4,-1
EndSplineSet
EndChar

StartChar: Iacute
Encoding: 205 205 141
Width: 321
GlyphClass: 2
Flags: W
LayerCount: 2
Back
Fore
SplineSet
117 3 m 5,0,-1
 117 683 l 5,1,-1
 203 683 l 5,2,-1
 203 3 l 5,3,-1
 117 3 l 5,0,-1
32 726 m 5,4,-1
 32 769 l 5,5,-1
 245 875 l 5,6,-1
 288 875 l 5,7,-1
 288 832 l 5,8,-1
 74 726 l 5,9,-1
 32 726 l 5,4,-1
EndSplineSet
EndChar

StartChar: Icircumflex
Encoding: 206 206 142
Width: 407
GlyphClass: 2
Flags: W
LayerCount: 2
Back
Fore
SplineSet
160 1 m 5,0,-1
 160 683 l 5,1,-1
 246 683 l 5,2,-1
 246 1 l 5,3,-1
 160 1 l 5,0,-1
33 683 m 5,4,-1
 33 724 l 5,5,-1
 203 809 l 5,6,-1
 373 724 l 5,7,-1
 373 683 l 5,8,-1
 331 683 l 5,9,-1
 181 756 l 5,10,-1
 33 683 l 5,4,-1
EndSplineSet
EndChar

StartChar: Idieresis
Encoding: 207 207 143
Width: 323
GlyphClass: 2
Flags: W
LayerCount: 2
Back
Fore
SplineSet
118 1 m 5,0,-1
 118 683 l 5,1,-1
 204 683 l 5,2,-1
 204 1 l 5,3,-1
 118 1 l 5,0,-1
54 724 m 6,4,5
 46 724 46 724 39 730 c 260,6,7
 32 736 32 736 32 745 c 6,8,-1
 32 787 l 6,9,10
 32 796 32 796 39 803 c 4,11,12
 46 809 46 809 54 809 c 6,13,-1
 95 809 l 6,14,15
 103 809 103 809 112 803 c 4,16,17
 118 796 118 796 118 788 c 6,18,-1
 118 745 l 6,19,20
 118 736 118 736 112 730 c 4,21,22
 105 724 105 724 95 724 c 6,23,-1
 54 724 l 6,4,5
225 724 m 6,24,25
 216 724 216 724 208 730 c 4,26,27
 203 736 203 736 204 745 c 6,28,-1
 204 787 l 6,29,30
 204 796 204 796 208 803 c 4,31,32
 215 809 215 809 225 809 c 6,33,-1
 266 809 l 6,34,35
 274 809 274 809 281 803 c 4,36,37
 288 796 288 796 288 788 c 6,38,-1
 288 745 l 6,39,40
 288 736 288 736 281 730 c 260,41,42
 274 724 274 724 266 724 c 6,43,-1
 225 724 l 6,24,25
EndSplineSet
EndChar

StartChar: Eth
Encoding: 208 208 144
Width: 639
GlyphClass: 2
Flags: W
LayerCount: 2
Back
Fore
SplineSet
431 42 m 5,0,-1
 474 85 l 5,1,-1
 474 595 l 5,2,-1
 431 638 l 5,3,-1
 218 638 l 5,4,-1
 218 384 l 5,5,-1
 303 384 l 5,6,-1
 303 341 l 5,7,-1
 218 341 l 5,8,-1
 218 42 l 5,9,-1
 431 42 l 5,0,-1
134 0 m 5,10,-1
 134 341 l 5,11,-1
 48 341 l 5,12,-1
 48 384 l 5,13,-1
 134 384 l 5,14,-1
 134 680 l 5,15,-1
 474 680 l 5,16,-1
 558 595 l 5,17,-1
 558 85 l 5,18,-1
 474 0 l 5,19,-1
 134 0 l 5,10,-1
EndSplineSet
EndChar

StartChar: Ntilde
Encoding: 209 209 145
Width: 589
GlyphClass: 2
Flags: W
LayerCount: 2
Back
Fore
SplineSet
80 1 m 5,0,-1
 80 683 l 5,1,-1
 144 683 l 5,2,-1
 421 128 l 5,3,-1
 421 683 l 5,4,-1
 506 683 l 5,5,-1
 506 1 l 5,6,-1
 441 1 l 5,7,-1
 165 554 l 5,8,-1
 165 1 l 5,9,-1
 80 1 l 5,0,-1
357 725 m 5,10,-1
 208 799 l 5,11,-1
 101 746 l 5,12,-1
 101 789 l 5,13,-1
 229 853 l 5,14,-1
 378 778 l 5,15,-1
 486 831 l 5,16,-1
 486 789 l 5,17,-1
 357 725 l 5,10,-1
EndSplineSet
EndChar

StartChar: Ograve
Encoding: 210 210 146
Width: 582
GlyphClass: 2
Flags: W
LayerCount: 2
Back
Fore
SplineSet
373 45 m 5,0,-1
 416 87 l 5,1,-1
 416 598 l 5,2,-1
 373 640 l 5,3,-1
 203 640 l 5,4,-1
 160 598 l 5,5,-1
 160 87 l 5,6,-1
 203 45 l 5,7,-1
 373 45 l 5,0,-1
160 3 m 5,8,-1
 75 87 l 5,9,-1
 75 598 l 5,10,-1
 160 683 l 5,11,-1
 416 683 l 5,12,-1
 501 598 l 5,13,-1
 501 87 l 5,14,-1
 416 3 l 5,15,-1
 160 3 l 5,8,-1
373 726 m 5,16,-1
 160 832 l 5,17,-1
 160 875 l 5,18,-1
 203 875 l 5,19,-1
 416 769 l 5,20,-1
 416 726 l 5,21,-1
 373 726 l 5,16,-1
EndSplineSet
EndChar

StartChar: Oacute
Encoding: 211 211 147
Width: 582
GlyphClass: 2
Flags: W
LayerCount: 2
Back
Fore
SplineSet
373 45 m 5,0,-1
 416 87 l 5,1,-1
 416 598 l 5,2,-1
 373 640 l 5,3,-1
 203 640 l 5,4,-1
 160 598 l 5,5,-1
 160 87 l 5,6,-1
 203 45 l 5,7,-1
 373 45 l 5,0,-1
160 3 m 5,8,-1
 75 87 l 5,9,-1
 75 598 l 5,10,-1
 160 683 l 5,11,-1
 416 683 l 5,12,-1
 501 598 l 5,13,-1
 501 87 l 5,14,-1
 416 3 l 5,15,-1
 160 3 l 5,8,-1
160 726 m 5,16,-1
 160 769 l 5,17,-1
 373 875 l 5,18,-1
 416 875 l 5,19,-1
 416 832 l 5,20,-1
 203 726 l 5,21,-1
 160 726 l 5,16,-1
EndSplineSet
EndChar

StartChar: Ocircumflex
Encoding: 212 212 148
Width: 583
GlyphClass: 2
Flags: W
LayerCount: 2
Back
Fore
SplineSet
373 44 m 5,0,-1
 417 86 l 5,1,-1
 417 597 l 5,2,-1
 373 640 l 5,3,-1
 202 640 l 5,4,-1
 161 597 l 5,5,-1
 161 86 l 5,6,-1
 202 44 l 5,7,-1
 373 44 l 5,0,-1
161 1 m 5,8,-1
 75 86 l 5,9,-1
 75 597 l 5,10,-1
 161 683 l 5,11,-1
 417 683 l 5,12,-1
 502 597 l 5,13,-1
 502 86 l 5,14,-1
 417 1 l 5,15,-1
 161 1 l 5,8,-1
118 725 m 5,16,-1
 118 767 l 5,17,-1
 288 853 l 5,18,-1
 458 767 l 5,19,-1
 458 725 l 5,20,-1
 417 725 l 5,21,-1
 268 799 l 5,22,-1
 118 725 l 5,16,-1
EndSplineSet
EndChar

StartChar: Otilde
Encoding: 213 213 149
Width: 582
GlyphClass: 2
Flags: W
LayerCount: 2
Back
Fore
SplineSet
373 44 m 5,0,-1
 416 86 l 5,1,-1
 416 597 l 5,2,-1
 373 640 l 5,3,-1
 203 640 l 5,4,-1
 160 597 l 5,5,-1
 160 86 l 5,6,-1
 203 44 l 5,7,-1
 373 44 l 5,0,-1
160 1 m 5,8,-1
 75 86 l 5,9,-1
 75 597 l 5,10,-1
 160 683 l 5,11,-1
 416 683 l 5,12,-1
 501 597 l 5,13,-1
 501 86 l 5,14,-1
 416 1 l 5,15,-1
 160 1 l 5,8,-1
352 725 m 5,16,-1
 203 799 l 5,17,-1
 96 746 l 5,18,-1
 96 789 l 5,19,-1
 224 853 l 5,20,-1
 373 778 l 5,21,-1
 481 831 l 5,22,-1
 481 789 l 5,23,-1
 352 725 l 5,16,-1
EndSplineSet
EndChar

StartChar: Odieresis
Encoding: 214 214 150
Width: 583
GlyphClass: 2
Flags: W
LayerCount: 2
Back
Fore
SplineSet
373 42 m 5,0,-1
 417 86 l 5,1,-1
 417 597 l 5,2,-1
 373 638 l 5,3,-1
 202 638 l 5,4,-1
 161 597 l 5,5,-1
 161 86 l 5,6,-1
 202 42 l 5,7,-1
 373 42 l 5,0,-1
161 1 m 5,8,-1
 75 86 l 5,9,-1
 75 597 l 5,10,-1
 161 683 l 5,11,-1
 417 683 l 5,12,-1
 502 597 l 5,13,-1
 502 86 l 5,14,-1
 417 1 l 5,15,-1
 161 1 l 5,8,-1
182 724 m 6,16,17
 172 724 172 724 166 730 c 260,18,19
 160 736 160 736 161 745 c 6,20,-1
 161 787 l 6,21,22
 161 796 161 796 166 803 c 4,23,24
 172 809 172 809 182 809 c 6,25,-1
 223 809 l 6,26,27
 231 809 231 809 240 803 c 4,28,29
 246 796 246 796 245 788 c 6,30,-1
 245 745 l 6,31,32
 245 736 245 736 240 730 c 4,33,34
 233 724 233 724 223 724 c 6,35,-1
 182 724 l 6,16,17
352 724 m 6,36,37
 343 724 343 724 336 730 c 4,38,39
 331 736 331 736 331 745 c 6,40,-1
 331 787 l 6,41,42
 331 796 331 796 336 803 c 4,43,44
 343 809 343 809 352 809 c 6,45,-1
 394 809 l 6,46,47
 402 809 402 809 408 803 c 4,48,49
 415 796 415 796 417 788 c 6,50,-1
 417 745 l 6,51,52
 417 736 417 736 408 730 c 260,53,54
 401 724 401 724 394 724 c 6,55,-1
 352 724 l 6,36,37
EndSplineSet
EndChar

StartChar: multiply
Encoding: 215 215 151
Width: 484
GlyphClass: 2
Flags: W
LayerCount: 2
Back
Fore
SplineSet
67 261 m 5,0,-1
 67 282 l 5,1,-1
 193 410 l 5,2,-1
 67 537 l 5,3,-1
 67 601 l 5,4,-1
 131 601 l 5,5,-1
 259 474 l 5,6,-1
 386 601 l 5,7,-1
 408 601 l 5,8,-1
 408 558 l 5,9,-1
 290 442 l 5,10,-1
 408 324 l 5,11,-1
 408 261 l 5,12,-1
 343 261 l 5,13,-1
 227 378 l 5,14,-1
 109 261 l 5,15,-1
 67 261 l 5,0,-1
EndSplineSet
EndChar

StartChar: Oslash
Encoding: 216 216 152
Width: 583
GlyphClass: 2
Flags: W
LayerCount: 2
Back
Fore
SplineSet
373 42 m 5,0,-1
 417 85 l 5,1,-1
 417 426 l 5,2,-1
 161 171 l 5,3,-1
 161 85 l 5,4,-1
 202 42 l 5,5,-1
 373 42 l 5,0,-1
161 255 m 5,6,-1
 417 510 l 5,7,-1
 417 595 l 5,8,-1
 373 638 l 5,9,-1
 202 638 l 5,10,-1
 161 595 l 5,11,-1
 161 255 l 5,6,-1
161 0 m 5,12,-1
 75 85 l 5,13,-1
 75 595 l 5,14,-1
 161 680 l 5,15,-1
 417 680 l 5,16,-1
 502 595 l 5,17,-1
 502 85 l 5,18,-1
 417 0 l 5,19,-1
 161 0 l 5,12,-1
EndSplineSet
EndChar

StartChar: Ugrave
Encoding: 217 217 153
Width: 586
GlyphClass: 2
Flags: W
LayerCount: 2
Back
Fore
SplineSet
163 3 m 5,0,-1
 78 87 l 5,1,-1
 78 683 l 5,2,-1
 163 683 l 5,3,-1
 163 87 l 5,4,-1
 206 45 l 5,5,-1
 376 45 l 5,6,-1
 419 87 l 5,7,-1
 419 683 l 5,8,-1
 504 683 l 5,9,-1
 504 87 l 5,10,-1
 419 3 l 5,11,-1
 163 3 l 5,0,-1
376 726 m 5,12,-1
 163 832 l 5,13,-1
 163 875 l 5,14,-1
 206 875 l 5,15,-1
 419 769 l 5,16,-1
 419 726 l 5,17,-1
 376 726 l 5,12,-1
EndSplineSet
EndChar

StartChar: Uacute
Encoding: 218 218 154
Width: 586
GlyphClass: 2
Flags: W
LayerCount: 2
Back
Fore
SplineSet
163 3 m 5,0,-1
 78 87 l 5,1,-1
 78 683 l 5,2,-1
 163 683 l 5,3,-1
 163 87 l 5,4,-1
 206 45 l 5,5,-1
 376 45 l 5,6,-1
 419 87 l 5,7,-1
 419 683 l 5,8,-1
 504 683 l 5,9,-1
 504 87 l 5,10,-1
 419 3 l 5,11,-1
 163 3 l 5,0,-1
163 726 m 5,12,-1
 163 769 l 5,13,-1
 376 875 l 5,14,-1
 419 875 l 5,15,-1
 419 832 l 5,16,-1
 206 726 l 5,17,-1
 163 726 l 5,12,-1
EndSplineSet
EndChar

StartChar: Ucircumflex
Encoding: 219 219 155
Width: 586
GlyphClass: 2
Flags: W
LayerCount: 2
Back
Fore
SplineSet
163 4 m 5,0,-1
 78 90 l 5,1,-1
 78 685 l 5,2,-1
 163 685 l 5,3,-1
 163 90 l 5,4,-1
 206 46 l 5,5,-1
 376 46 l 5,6,-1
 419 90 l 5,7,-1
 419 685 l 5,8,-1
 504 685 l 5,9,-1
 504 90 l 5,10,-1
 419 4 l 5,11,-1
 163 4 l 5,0,-1
120 728 m 5,12,-1
 120 770 l 5,13,-1
 291 856 l 5,14,-1
 462 770 l 5,15,-1
 462 728 l 5,16,-1
 419 728 l 5,17,-1
 270 802 l 5,18,-1
 120 728 l 5,12,-1
EndSplineSet
EndChar

StartChar: Udieresis
Encoding: 220 220 156
Width: 588
GlyphClass: 2
Flags: W
LayerCount: 2
Back
Fore
SplineSet
164 1 m 5,0,-1
 78 86 l 5,1,-1
 78 683 l 5,2,-1
 164 683 l 5,3,-1
 164 86 l 5,4,-1
 205 42 l 5,5,-1
 376 42 l 5,6,-1
 420 86 l 5,7,-1
 420 683 l 5,8,-1
 505 683 l 5,9,-1
 505 86 l 5,10,-1
 420 1 l 5,11,-1
 164 1 l 5,0,-1
185 724 m 6,12,13
 175 724 175 724 169 730 c 260,14,15
 163 736 163 736 164 745 c 6,16,-1
 164 787 l 6,17,18
 164 796 164 796 169 803 c 4,19,20
 175 809 175 809 185 809 c 6,21,-1
 226 809 l 6,22,23
 234 809 234 809 243 803 c 4,24,25
 249 796 249 796 248 788 c 6,26,-1
 248 745 l 6,27,28
 248 736 248 736 243 730 c 4,29,30
 236 724 236 724 226 724 c 6,31,-1
 185 724 l 6,12,13
355 724 m 6,32,33
 346 724 346 724 339 730 c 4,34,35
 334 736 334 736 334 745 c 6,36,-1
 334 787 l 6,37,38
 334 796 334 796 339 803 c 4,39,40
 346 809 346 809 355 809 c 6,41,-1
 397 809 l 6,42,43
 405 809 405 809 411 803 c 4,44,45
 418 796 418 796 420 788 c 6,46,-1
 420 745 l 6,47,48
 420 736 420 736 411 730 c 260,49,50
 404 724 404 724 397 724 c 6,51,-1
 355 724 l 6,32,33
EndSplineSet
EndChar

StartChar: Yacute
Encoding: 221 221 157
Width: 546
GlyphClass: 2
Flags: W
LayerCount: 2
Back
Fore
SplineSet
167 3 m 1,0,-1
 167 45 l 1,1,-1
 295 45 l 1,2,-1
 380 130 l 1,3,-1
 380 258 l 1,4,-1
 252 258 l 1,5,-1
 39 683 l 1,6,-1
 124 683 l 1,7,-1
 316 300 l 1,8,-1
 380 300 l 1,9,-1
 380 683 l 1,10,-1
 465 683 l 1,11,-1
 465 130 l 1,12,-1
 337 3 l 1,13,-1
 167 3 l 1,0,-1
124 726 m 1,14,-1
 124 769 l 1,15,-1
 337 875 l 1,16,-1
 380 875 l 1,17,-1
 380 832 l 1,18,-1
 167 726 l 1,19,-1
 124 726 l 1,14,-1
EndSplineSet
EndChar

StartChar: Thorn
Encoding: 222 222 158
Width: 583
GlyphClass: 2
Flags: W
LayerCount: 2
Back
Fore
SplineSet
378 212 m 1,0,-1
 422 255 l 1,1,-1
 422 426 l 1,2,-1
 378 468 l 1,3,-1
 166 468 l 1,4,-1
 166 212 l 1,5,-1
 378 212 l 1,0,-1
80 0 m 1,6,-1
 80 680 l 1,7,-1
 166 680 l 1,8,-1
 166 510 l 1,9,-1
 422 510 l 1,10,-1
 507 426 l 1,11,-1
 507 255 l 1,12,-1
 422 171 l 1,13,-1
 166 171 l 1,14,-1
 166 0 l 1,15,-1
 80 0 l 1,6,-1
EndSplineSet
EndChar

StartChar: germandbls
Encoding: 223 223 159
Width: 579
GlyphClass: 2
Flags: W
LayerCount: 2
Back
Fore
SplineSet
205 -85 m 5,0,-1
 205 -42 l 5,1,-1
 312 -42 l 5,2,-1
 420 64 l 5,3,-1
 420 234 l 5,4,-1
 248 319 l 5,5,-1
 248 361 l 5,6,-1
 376 490 l 5,7,-1
 376 574 l 5,8,-1
 248 638 l 5,9,-1
 205 638 l 5,10,-1
 164 597 l 5,11,-1
 164 0 l 5,12,-1
 78 0 l 5,13,-1
 78 597 l 5,14,-1
 164 681 l 5,15,-1
 248 681 l 5,16,-1
 420 597 l 5,17,-1
 461 553 l 5,18,-1
 461 511 l 5,19,-1
 291 341 l 5,20,-1
 461 255 l 5,21,-1
 505 213 l 5,22,-1
 505 85 l 5,23,-1
 334 -85 l 5,24,-1
 205 -85 l 5,0,-1
EndSplineSet
EndChar

StartChar: agrave
Encoding: 224 224 160
Width: 571
GlyphClass: 2
Flags: W
LayerCount: 2
Back
Fore
SplineSet
407 44 m 5,0,-1
 407 171 l 5,1,-1
 192 171 l 5,2,-1
 151 128 l 5,3,-1
 151 86 l 5,4,-1
 192 44 l 5,5,-1
 407 44 l 5,0,-1
151 2 m 5,6,-1
 65 86 l 5,7,-1
 65 128 l 5,8,-1
 151 215 l 5,9,-1
 407 215 l 5,10,-1
 407 300 l 5,11,-1
 363 341 l 5,12,-1
 192 341 l 5,13,-1
 151 300 l 5,14,-1
 65 300 l 5,15,-1
 151 386 l 5,16,-1
 407 386 l 5,17,-1
 492 300 l 5,18,-1
 492 2 l 5,19,-1
 151 2 l 5,6,-1
363 427 m 5,20,-1
 151 534 l 5,21,-1
 151 576 l 5,22,-1
 192 576 l 5,23,-1
 407 470 l 5,24,-1
 407 427 l 5,25,-1
 363 427 l 5,20,-1
EndSplineSet
EndChar

StartChar: aacute
Encoding: 225 225 161
Width: 571
GlyphClass: 2
Flags: W
LayerCount: 2
Back
Fore
SplineSet
407 44 m 5,0,-1
 407 171 l 5,1,-1
 192 171 l 5,2,-1
 151 128 l 5,3,-1
 151 86 l 5,4,-1
 192 44 l 5,5,-1
 407 44 l 5,0,-1
151 2 m 5,6,-1
 65 86 l 5,7,-1
 65 128 l 5,8,-1
 151 215 l 5,9,-1
 407 215 l 5,10,-1
 407 300 l 5,11,-1
 363 341 l 5,12,-1
 192 341 l 5,13,-1
 151 300 l 5,14,-1
 65 300 l 5,15,-1
 151 386 l 5,16,-1
 407 386 l 5,17,-1
 492 300 l 5,18,-1
 492 2 l 5,19,-1
 151 2 l 5,6,-1
151 427 m 5,20,-1
 151 470 l 5,21,-1
 363 576 l 5,22,-1
 407 576 l 5,23,-1
 407 534 l 5,24,-1
 192 427 l 5,25,-1
 151 427 l 5,20,-1
EndSplineSet
EndChar

StartChar: acircumflex
Encoding: 226 226 162
Width: 570
GlyphClass: 2
Flags: W
LayerCount: 2
Back
Fore
SplineSet
406 45 m 5,0,-1
 406 173 l 5,1,-1
 191 173 l 5,2,-1
 150 130 l 5,3,-1
 150 86 l 5,4,-1
 191 45 l 5,5,-1
 406 45 l 5,0,-1
150 2 m 5,6,-1
 64 86 l 5,7,-1
 64 130 l 5,8,-1
 150 215 l 5,9,-1
 406 215 l 5,10,-1
 406 300 l 5,11,-1
 362 343 l 5,12,-1
 191 343 l 5,13,-1
 150 300 l 5,14,-1
 64 300 l 5,15,-1
 150 386 l 5,16,-1
 406 386 l 5,17,-1
 491 300 l 5,18,-1
 491 2 l 5,19,-1
 150 2 l 5,6,-1
107 427 m 5,20,-1
 107 471 l 5,21,-1
 277 556 l 5,22,-1
 447 471 l 5,23,-1
 447 427 l 5,24,-1
 406 427 l 5,25,-1
 257 502 l 5,26,-1
 107 427 l 5,20,-1
EndSplineSet
EndChar

StartChar: atilde
Encoding: 227 227 163
Width: 570
GlyphClass: 2
Flags: W
LayerCount: 2
Back
Fore
SplineSet
407 45 m 5,0,-1
 407 173 l 5,1,-1
 192 173 l 5,2,-1
 151 130 l 5,3,-1
 151 86 l 5,4,-1
 192 45 l 5,5,-1
 407 45 l 5,0,-1
151 2 m 5,6,-1
 65 86 l 5,7,-1
 65 130 l 5,8,-1
 151 215 l 5,9,-1
 407 215 l 5,10,-1
 407 300 l 5,11,-1
 363 343 l 5,12,-1
 192 343 l 5,13,-1
 151 300 l 5,14,-1
 65 300 l 5,15,-1
 151 386 l 5,16,-1
 407 386 l 5,17,-1
 492 300 l 5,18,-1
 492 2 l 5,19,-1
 151 2 l 5,6,-1
342 427 m 5,20,-1
 192 502 l 5,21,-1
 86 450 l 5,22,-1
 86 492 l 5,23,-1
 213 556 l 5,24,-1
 363 481 l 5,25,-1
 471 534 l 5,26,-1
 471 492 l 5,27,-1
 342 427 l 5,20,-1
EndSplineSet
EndChar

StartChar: adieresis
Encoding: 228 228 164
Width: 570
GlyphClass: 2
Flags: W
LayerCount: 2
Back
Fore
SplineSet
406 42 m 5,0,-1
 406 171 l 5,1,-1
 191 171 l 5,2,-1
 150 126 l 5,3,-1
 150 85 l 5,4,-1
 191 42 l 5,5,-1
 406 42 l 5,0,-1
150 0 m 5,6,-1
 64 85 l 5,7,-1
 64 126 l 5,8,-1
 150 212 l 5,9,-1
 406 212 l 5,10,-1
 406 298 l 5,11,-1
 362 341 l 5,12,-1
 191 341 l 5,13,-1
 150 298 l 5,14,-1
 64 298 l 5,15,-1
 150 384 l 5,16,-1
 406 384 l 5,17,-1
 491 298 l 5,18,-1
 491 0 l 5,19,-1
 150 0 l 5,6,-1
171 426 m 6,20,21
 161 426 161 426 155 431 c 260,22,23
 149 437 149 437 150 446 c 6,24,-1
 150 488 l 6,25,26
 150 497 150 497 155 504 c 4,27,28
 161 510 161 510 171 510 c 6,29,-1
 212 510 l 6,30,31
 220 510 220 510 229 504 c 4,32,33
 235 497 235 497 234 489 c 6,34,-1
 234 446 l 6,35,36
 234 436 234 436 229 431 c 4,37,38
 222 425 222 425 212 426 c 6,39,-1
 171 426 l 6,20,21
341 426 m 6,40,41
 332 426 332 426 325 431 c 4,42,43
 320 437 320 437 320 446 c 6,44,-1
 320 488 l 6,45,46
 320 497 320 497 325 504 c 4,47,48
 332 510 332 510 341 510 c 6,49,-1
 383 510 l 6,50,51
 391 510 391 510 397 504 c 4,52,53
 404 497 404 497 406 489 c 6,54,-1
 406 446 l 6,55,56
 406 436 406 436 397 431 c 260,57,58
 390 425 390 425 383 426 c 6,59,-1
 341 426 l 6,40,41
EndSplineSet
EndChar

StartChar: aring
Encoding: 229 229 165
Width: 571
GlyphClass: 2
Flags: W
LayerCount: 2
Back
Fore
SplineSet
407 45 m 5,0,-1
 407 173 l 5,1,-1
 192 173 l 5,2,-1
 151 130 l 5,3,-1
 151 86 l 5,4,-1
 192 45 l 5,5,-1
 407 45 l 5,0,-1
151 2 m 5,6,-1
 65 86 l 5,7,-1
 65 130 l 5,8,-1
 151 215 l 5,9,-1
 407 215 l 5,10,-1
 407 300 l 5,11,-1
 363 343 l 5,12,-1
 192 343 l 5,13,-1
 151 300 l 5,14,-1
 65 300 l 5,15,-1
 151 386 l 5,16,-1
 407 386 l 5,17,-1
 492 300 l 5,18,-1
 492 2 l 5,19,-1
 151 2 l 5,6,-1
299 450 m 5,20,-1
 342 471 l 5,21,-1
 342 513 l 5,22,-1
 299 534 l 5,23,-1
 258 534 l 5,24,-1
 213 513 l 5,25,-1
 213 471 l 5,26,-1
 258 450 l 5,27,-1
 299 450 l 5,20,-1
213 427 m 5,28,-1
 172 450 l 5,29,-1
 172 534 l 5,30,-1
 213 556 l 5,31,-1
 342 556 l 5,32,-1
 384 534 l 5,33,-1
 384 450 l 5,34,-1
 342 427 l 5,35,-1
 213 427 l 5,28,-1
EndSplineSet
EndChar

StartChar: ae
Encoding: 230 230 166
Width: 651
GlyphClass: 2
Flags: W
LayerCount: 2
Back
Fore
SplineSet
277 44 m 5,0,-1
 277 171 l 5,1,-1
 191 171 l 5,2,-1
 150 128 l 5,3,-1
 150 86 l 5,4,-1
 191 44 l 5,5,-1
 277 44 l 5,0,-1
491 214 m 5,6,-1
 491 299 l 5,7,-1
 449 341 l 5,8,-1
 363 341 l 5,9,-1
 363 214 l 5,10,-1
 491 214 l 5,6,-1
150 1 m 5,11,-1
 65 86 l 5,12,-1
 65 128 l 5,13,-1
 150 214 l 5,14,-1
 277 214 l 5,15,-1
 277 341 l 5,16,-1
 191 341 l 5,17,-1
 150 299 l 5,18,-1
 65 299 l 5,19,-1
 150 386 l 5,20,-1
 491 386 l 5,21,-1
 575 299 l 5,22,-1
 575 171 l 5,23,-1
 363 171 l 5,24,-1
 363 44 l 5,25,-1
 449 44 l 5,26,-1
 491 86 l 5,27,-1
 575 86 l 5,28,-1
 491 1 l 5,29,-1
 150 1 l 5,11,-1
EndSplineSet
EndChar

StartChar: ccedilla
Encoding: 231 231 167
Width: 569
GlyphClass: 2
Flags: W
LayerCount: 2
Back
Fore
SplineSet
239 -147 m 5,0,-1
 239 -126 l 5,1,-1
 325 -85 l 5,2,-1
 325 -62 l 5,3,-1
 239 -20 l 5,4,-1
 239 1 l 5,5,-1
 155 1 l 5,6,-1
 69 86 l 5,7,-1
 69 299 l 5,8,-1
 155 384 l 5,9,-1
 411 384 l 5,10,-1
 496 299 l 5,11,-1
 496 256 l 5,12,-1
 411 256 l 5,13,-1
 411 299 l 5,14,-1
 367 341 l 5,15,-1
 196 341 l 5,16,-1
 155 299 l 5,17,-1
 155 86 l 5,18,-1
 196 44 l 5,19,-1
 367 44 l 5,20,-1
 411 86 l 5,21,-1
 496 86 l 5,22,-1
 411 1 l 5,23,-1
 282 1 l 5,24,-1
 367 -42 l 5,25,-1
 367 -105 l 5,26,-1
 282 -147 l 5,27,-1
 239 -147 l 5,0,-1
EndSplineSet
EndChar

StartChar: egrave
Encoding: 232 232 168
Width: 571
GlyphClass: 2
Flags: W
LayerCount: 2
Back
Fore
SplineSet
411 215 m 5,0,-1
 411 300 l 5,1,-1
 367 341 l 5,2,-1
 196 341 l 5,3,-1
 155 300 l 5,4,-1
 155 215 l 5,5,-1
 411 215 l 5,0,-1
155 2 m 5,6,-1
 69 86 l 5,7,-1
 69 300 l 5,8,-1
 155 386 l 5,9,-1
 411 386 l 5,10,-1
 496 300 l 5,11,-1
 496 171 l 5,12,-1
 155 171 l 5,13,-1
 155 86 l 5,14,-1
 196 44 l 5,15,-1
 367 44 l 5,16,-1
 411 86 l 5,17,-1
 496 86 l 5,18,-1
 411 2 l 5,19,-1
 155 2 l 5,6,-1
367 427 m 5,20,-1
 155 534 l 5,21,-1
 155 576 l 5,22,-1
 196 576 l 5,23,-1
 411 470 l 5,24,-1
 411 427 l 5,25,-1
 367 427 l 5,20,-1
EndSplineSet
EndChar

StartChar: eacute
Encoding: 233 233 169
Width: 571
GlyphClass: 2
Flags: W
LayerCount: 2
Back
Fore
SplineSet
411 215 m 5,0,-1
 411 300 l 5,1,-1
 367 341 l 5,2,-1
 196 341 l 5,3,-1
 155 300 l 5,4,-1
 155 215 l 5,5,-1
 411 215 l 5,0,-1
155 2 m 5,6,-1
 69 86 l 5,7,-1
 69 300 l 5,8,-1
 155 386 l 5,9,-1
 411 386 l 5,10,-1
 496 300 l 5,11,-1
 496 171 l 5,12,-1
 155 171 l 5,13,-1
 155 86 l 5,14,-1
 196 44 l 5,15,-1
 367 44 l 5,16,-1
 411 86 l 5,17,-1
 496 86 l 5,18,-1
 411 2 l 5,19,-1
 155 2 l 5,6,-1
155 427 m 5,20,-1
 155 470 l 5,21,-1
 367 576 l 5,22,-1
 411 576 l 5,23,-1
 411 534 l 5,24,-1
 196 427 l 5,25,-1
 155 427 l 5,20,-1
EndSplineSet
EndChar

StartChar: ecircumflex
Encoding: 234 234 170
Width: 571
GlyphClass: 2
Flags: W
LayerCount: 2
Back
Fore
SplineSet
411 215 m 5,0,-1
 411 300 l 5,1,-1
 367 343 l 5,2,-1
 196 343 l 5,3,-1
 155 300 l 5,4,-1
 155 215 l 5,5,-1
 411 215 l 5,0,-1
155 2 m 5,6,-1
 69 86 l 5,7,-1
 69 300 l 5,8,-1
 155 386 l 5,9,-1
 411 386 l 5,10,-1
 496 300 l 5,11,-1
 496 173 l 5,12,-1
 155 173 l 5,13,-1
 155 86 l 5,14,-1
 196 45 l 5,15,-1
 367 45 l 5,16,-1
 411 86 l 5,17,-1
 496 86 l 5,18,-1
 411 2 l 5,19,-1
 155 2 l 5,6,-1
112 427 m 5,20,-1
 112 471 l 5,21,-1
 282 556 l 5,22,-1
 452 471 l 5,23,-1
 452 427 l 5,24,-1
 411 427 l 5,25,-1
 262 502 l 5,26,-1
 112 427 l 5,20,-1
EndSplineSet
EndChar

StartChar: edieresis
Encoding: 235 235 171
Width: 571
GlyphClass: 2
Flags: W
LayerCount: 2
Back
Fore
SplineSet
411 212 m 5,0,-1
 411 298 l 5,1,-1
 367 341 l 5,2,-1
 196 341 l 5,3,-1
 155 298 l 5,4,-1
 155 212 l 5,5,-1
 411 212 l 5,0,-1
155 0 m 5,6,-1
 69 85 l 5,7,-1
 69 298 l 5,8,-1
 155 384 l 5,9,-1
 411 384 l 5,10,-1
 496 298 l 5,11,-1
 496 171 l 5,12,-1
 155 171 l 5,13,-1
 155 85 l 5,14,-1
 196 42 l 5,15,-1
 367 42 l 5,16,-1
 411 85 l 5,17,-1
 496 85 l 5,18,-1
 411 0 l 5,19,-1
 155 0 l 5,6,-1
176 426 m 6,20,21
 166 426 166 426 160 431 c 260,22,23
 154 437 154 437 155 446 c 6,24,-1
 155 488 l 6,25,26
 155 497 155 497 160 504 c 4,27,28
 166 510 166 510 176 510 c 6,29,-1
 217 510 l 6,30,31
 225 510 225 510 234 504 c 4,32,33
 240 497 240 497 239 489 c 6,34,-1
 239 446 l 6,35,36
 239 436 239 436 234 431 c 4,37,38
 227 425 227 425 217 426 c 6,39,-1
 176 426 l 6,20,21
346 426 m 6,40,41
 337 426 337 426 330 431 c 4,42,43
 325 437 325 437 325 446 c 6,44,-1
 325 488 l 6,45,46
 325 497 325 497 330 504 c 4,47,48
 337 510 337 510 346 510 c 6,49,-1
 388 510 l 6,50,51
 396 510 396 510 402 504 c 4,52,53
 409 497 409 497 411 489 c 6,54,-1
 411 446 l 6,55,56
 411 436 411 436 402 431 c 260,57,58
 395 425 395 425 388 426 c 6,59,-1
 346 426 l 6,40,41
EndSplineSet
EndChar

StartChar: igrave
Encoding: 236 236 172
Width: 354
GlyphClass: 2
Flags: W
LayerCount: 2
Back
Fore
SplineSet
131 2 m 5,0,-1
 131 386 l 5,1,-1
 217 386 l 5,2,-1
 217 2 l 5,3,-1
 131 2 l 5,0,-1
258 427 m 5,4,-1
 45 534 l 5,5,-1
 45 576 l 5,6,-1
 88 576 l 5,7,-1
 301 470 l 5,8,-1
 301 427 l 5,9,-1
 258 427 l 5,4,-1
EndSplineSet
EndChar

StartChar: iacute
Encoding: 237 237 173
Width: 354
GlyphClass: 2
Flags: W
LayerCount: 2
Back
Fore
SplineSet
132 2 m 5,0,-1
 132 386 l 5,1,-1
 218 386 l 5,2,-1
 218 2 l 5,3,-1
 132 2 l 5,0,-1
46 427 m 5,4,-1
 46 470 l 5,5,-1
 259 576 l 5,6,-1
 302 576 l 5,7,-1
 302 534 l 5,8,-1
 89 427 l 5,9,-1
 46 427 l 5,4,-1
EndSplineSet
EndChar

StartChar: icircumflex
Encoding: 238 238 174
Width: 357
GlyphClass: 2
Flags: W
LayerCount: 2
Back
Fore
SplineSet
132 2 m 5,0,-1
 132 386 l 5,1,-1
 218 386 l 5,2,-1
 218 2 l 5,3,-1
 132 2 l 5,0,-1
302 427 m 5,4,-1
 153 502 l 5,5,-1
 46 450 l 5,6,-1
 46 492 l 5,7,-1
 173 556 l 5,8,-1
 302 492 l 5,9,-1
 302 427 l 5,4,-1
EndSplineSet
EndChar

StartChar: idieresis
Encoding: 239 239 175
Width: 358
GlyphClass: 2
Flags: W
LayerCount: 2
Back
Fore
SplineSet
133 0 m 5,0,-1
 133 384 l 5,1,-1
 219 384 l 5,2,-1
 219 0 l 5,3,-1
 133 0 l 5,0,-1
69 426 m 6,4,5
 59 426 59 426 53 431 c 260,6,7
 47 437 47 437 47 446 c 6,8,-1
 47 488 l 6,9,10
 47 497 47 497 53 504 c 4,11,12
 59 510 59 510 69 510 c 6,13,-1
 110 510 l 6,14,15
 118 510 118 510 127 504 c 4,16,17
 133 497 133 497 133 489 c 6,18,-1
 133 446 l 6,19,20
 133 436 133 436 127 431 c 4,21,22
 120 425 120 425 110 426 c 6,23,-1
 69 426 l 6,4,5
240 426 m 6,24,25
 231 426 231 426 223 431 c 4,26,27
 218 437 218 437 219 446 c 6,28,-1
 219 488 l 6,29,30
 219 497 219 497 223 504 c 4,31,32
 230 510 230 510 240 510 c 6,33,-1
 281 510 l 6,34,35
 289 510 289 510 296 504 c 4,36,37
 303 497 303 497 303 489 c 6,38,-1
 303 446 l 6,39,40
 303 436 303 436 296 431 c 260,41,42
 289 425 289 425 281 426 c 6,43,-1
 240 426 l 6,24,25
EndSplineSet
EndChar

StartChar: eth
Encoding: 240 240 176
Width: 575
GlyphClass: 2
Flags: W
LayerCount: 2
Back
Fore
SplineSet
367 42 m 5,0,-1
 411 86 l 5,1,-1
 411 299 l 5,2,-1
 367 341 l 5,3,-1
 196 341 l 5,4,-1
 155 299 l 5,5,-1
 155 86 l 5,6,-1
 196 42 l 5,7,-1
 367 42 l 5,0,-1
155 1 m 5,8,-1
 69 86 l 5,9,-1
 69 299 l 5,10,-1
 155 384 l 5,11,-1
 367 384 l 5,12,-1
 303 512 l 5,13,-1
 196 512 l 5,14,-1
 196 554 l 5,15,-1
 282 554 l 5,16,-1
 239 638 l 5,17,-1
 346 638 l 5,18,-1
 388 554 l 5,19,-1
 496 554 l 5,20,-1
 496 512 l 5,21,-1
 411 512 l 5,22,-1
 496 341 l 5,23,-1
 496 86 l 5,24,-1
 411 1 l 5,25,-1
 155 1 l 5,8,-1
EndSplineSet
EndChar

StartChar: ntilde
Encoding: 241 241 177
Width: 581
GlyphClass: 2
Flags: W
LayerCount: 2
Back
Fore
SplineSet
76 2 m 5,0,-1
 76 386 l 5,1,-1
 418 386 l 5,2,-1
 503 300 l 5,3,-1
 503 2 l 5,4,-1
 418 2 l 5,5,-1
 418 300 l 5,6,-1
 374 343 l 5,7,-1
 162 343 l 5,8,-1
 162 2 l 5,9,-1
 76 2 l 5,0,-1
353 427 m 5,10,-1
 203 502 l 5,11,-1
 97 450 l 5,12,-1
 97 492 l 5,13,-1
 224 556 l 5,14,-1
 374 481 l 5,15,-1
 482 534 l 5,16,-1
 482 492 l 5,17,-1
 353 427 l 5,10,-1
EndSplineSet
EndChar

StartChar: ograve
Encoding: 242 242 178
Width: 573
GlyphClass: 2
Flags: W
LayerCount: 2
Back
Fore
SplineSet
367 44 m 5,0,-1
 411 86 l 5,1,-1
 411 300 l 5,2,-1
 367 341 l 5,3,-1
 196 341 l 5,4,-1
 155 300 l 5,5,-1
 155 86 l 5,6,-1
 196 44 l 5,7,-1
 367 44 l 5,0,-1
155 2 m 5,8,-1
 69 86 l 5,9,-1
 69 300 l 5,10,-1
 155 386 l 5,11,-1
 411 386 l 5,12,-1
 496 300 l 5,13,-1
 496 86 l 5,14,-1
 411 2 l 5,15,-1
 155 2 l 5,8,-1
367 427 m 5,16,-1
 155 534 l 5,17,-1
 155 576 l 5,18,-1
 196 576 l 5,19,-1
 411 470 l 5,20,-1
 411 427 l 5,21,-1
 367 427 l 5,16,-1
EndSplineSet
EndChar

StartChar: oacute
Encoding: 243 243 179
Width: 573
GlyphClass: 2
Flags: W
LayerCount: 2
Back
Fore
SplineSet
367 44 m 5,0,-1
 411 86 l 5,1,-1
 411 300 l 5,2,-1
 367 341 l 5,3,-1
 196 341 l 5,4,-1
 155 300 l 5,5,-1
 155 86 l 5,6,-1
 196 44 l 5,7,-1
 367 44 l 5,0,-1
155 2 m 5,8,-1
 69 86 l 5,9,-1
 69 300 l 5,10,-1
 155 386 l 5,11,-1
 411 386 l 5,12,-1
 496 300 l 5,13,-1
 496 86 l 5,14,-1
 411 2 l 5,15,-1
 155 2 l 5,8,-1
155 427 m 5,16,-1
 155 470 l 5,17,-1
 367 576 l 5,18,-1
 411 576 l 5,19,-1
 411 534 l 5,20,-1
 196 427 l 5,21,-1
 155 427 l 5,16,-1
EndSplineSet
EndChar

StartChar: ocircumflex
Encoding: 244 244 180
Width: 573
GlyphClass: 2
Flags: W
LayerCount: 2
Back
Fore
SplineSet
367 45 m 5,0,-1
 411 86 l 5,1,-1
 411 300 l 5,2,-1
 367 343 l 5,3,-1
 196 343 l 5,4,-1
 155 300 l 5,5,-1
 155 86 l 5,6,-1
 196 45 l 5,7,-1
 367 45 l 5,0,-1
155 2 m 5,8,-1
 69 86 l 5,9,-1
 69 300 l 5,10,-1
 155 386 l 5,11,-1
 411 386 l 5,12,-1
 496 300 l 5,13,-1
 496 86 l 5,14,-1
 411 2 l 5,15,-1
 155 2 l 5,8,-1
112 427 m 5,16,-1
 112 471 l 5,17,-1
 282 556 l 5,18,-1
 452 471 l 5,19,-1
 452 427 l 5,20,-1
 411 427 l 5,21,-1
 262 502 l 5,22,-1
 112 427 l 5,16,-1
EndSplineSet
EndChar

StartChar: otilde
Encoding: 245 245 181
Width: 573
GlyphClass: 2
Flags: W
LayerCount: 2
Back
Fore
SplineSet
367 45 m 5,0,-1
 411 86 l 5,1,-1
 411 300 l 5,2,-1
 367 343 l 5,3,-1
 196 343 l 5,4,-1
 155 300 l 5,5,-1
 155 86 l 5,6,-1
 196 45 l 5,7,-1
 367 45 l 5,0,-1
155 2 m 5,8,-1
 69 86 l 5,9,-1
 69 300 l 5,10,-1
 155 386 l 5,11,-1
 411 386 l 5,12,-1
 496 300 l 5,13,-1
 496 86 l 5,14,-1
 411 2 l 5,15,-1
 155 2 l 5,8,-1
346 427 m 5,16,-1
 196 502 l 5,17,-1
 90 450 l 5,18,-1
 90 492 l 5,19,-1
 217 556 l 5,20,-1
 367 481 l 5,21,-1
 475 534 l 5,22,-1
 475 492 l 5,23,-1
 346 427 l 5,16,-1
EndSplineSet
EndChar

StartChar: odieresis
Encoding: 246 246 182
Width: 572
GlyphClass: 2
Flags: W
LayerCount: 2
Back
Fore
SplineSet
367 42 m 5,0,-1
 410 85 l 5,1,-1
 410 298 l 5,2,-1
 367 341 l 5,3,-1
 197 341 l 5,4,-1
 154 298 l 5,5,-1
 154 85 l 5,6,-1
 197 42 l 5,7,-1
 367 42 l 5,0,-1
154 0 m 5,8,-1
 69 85 l 5,9,-1
 69 298 l 5,10,-1
 154 384 l 5,11,-1
 410 384 l 5,12,-1
 495 298 l 5,13,-1
 495 85 l 5,14,-1
 410 0 l 5,15,-1
 154 0 l 5,8,-1
175 426 m 6,16,17
 165 426 165 426 159 431 c 260,18,19
 153 437 153 437 154 446 c 6,20,-1
 154 488 l 6,21,22
 154 497 154 497 159 504 c 4,23,24
 165 510 165 510 175 510 c 6,25,-1
 218 510 l 6,26,27
 226 510 226 510 233 504 c 4,28,29
 239 497 239 497 240 489 c 6,30,-1
 240 446 l 6,31,32
 240 436 240 436 233 431 c 4,33,34
 226 425 226 425 218 426 c 6,35,-1
 175 426 l 6,16,17
346 426 m 6,36,37
 337 426 337 426 330 431 c 4,38,39
 324 437 324 437 325 446 c 6,40,-1
 325 488 l 6,41,42
 325 497 325 497 330 504 c 4,43,44
 337 510 337 510 346 510 c 6,45,-1
 388 510 l 6,46,47
 396 510 396 510 404 504 c 4,48,49
 411 497 411 497 410 489 c 6,50,-1
 410 446 l 6,51,52
 410 436 410 436 404 431 c 260,53,54
 397 425 397 425 388 426 c 6,55,-1
 346 426 l 6,36,37
EndSplineSet
EndChar

StartChar: divide
Encoding: 247 247 183
Width: 446
GlyphClass: 2
Flags: W
LayerCount: 2
Back
Fore
SplineSet
175 260 m 5,0,-1
 175 365 l 5,1,-1
 261 365 l 5,2,-1
 261 260 l 5,3,-1
 175 260 l 5,0,-1
48 410 m 5,4,-1
 48 451 l 5,5,-1
 388 451 l 5,6,-1
 388 410 l 5,7,-1
 48 410 l 5,4,-1
175 494 m 5,8,-1
 175 599 l 5,9,-1
 261 599 l 5,10,-1
 261 494 l 5,11,-1
 175 494 l 5,8,-1
EndSplineSet
EndChar

StartChar: oslash
Encoding: 248 248 184
Width: 575
GlyphClass: 2
Flags: W
LayerCount: 2
Back
Fore
SplineSet
368 44 m 5,0,-1
 412 86 l 5,1,-1
 412 236 l 5,2,-1
 156 107 l 5,3,-1
 156 86 l 5,4,-1
 197 44 l 5,5,-1
 368 44 l 5,0,-1
156 151 m 5,6,-1
 412 278 l 5,7,-1
 412 299 l 5,8,-1
 368 341 l 5,9,-1
 197 341 l 5,10,-1
 156 299 l 5,11,-1
 156 151 l 5,6,-1
156 1 m 5,12,-1
 70 86 l 5,13,-1
 70 299 l 5,14,-1
 156 386 l 5,15,-1
 412 386 l 5,16,-1
 497 299 l 5,17,-1
 497 86 l 5,18,-1
 412 1 l 5,19,-1
 156 1 l 5,12,-1
EndSplineSet
EndChar

StartChar: ugrave
Encoding: 249 249 185
Width: 578
GlyphClass: 2
Flags: W
LayerCount: 2
Back
Fore
SplineSet
158 2 m 5,0,-1
 72 86 l 5,1,-1
 72 386 l 5,2,-1
 158 386 l 5,3,-1
 158 86 l 5,4,-1
 199 44 l 5,5,-1
 414 44 l 5,6,-1
 414 386 l 5,7,-1
 499 386 l 5,8,-1
 499 2 l 5,9,-1
 158 2 l 5,0,-1
370 427 m 5,10,-1
 158 534 l 5,11,-1
 158 576 l 5,12,-1
 199 576 l 5,13,-1
 414 470 l 5,14,-1
 414 427 l 5,15,-1
 370 427 l 5,10,-1
EndSplineSet
EndChar

StartChar: uacute
Encoding: 250 250 186
Width: 578
GlyphClass: 2
Flags: W
LayerCount: 2
Back
Fore
SplineSet
158 2 m 5,0,-1
 72 86 l 5,1,-1
 72 386 l 5,2,-1
 158 386 l 5,3,-1
 158 86 l 5,4,-1
 199 44 l 5,5,-1
 414 44 l 5,6,-1
 414 386 l 5,7,-1
 499 386 l 5,8,-1
 499 2 l 5,9,-1
 158 2 l 5,0,-1
158 427 m 5,10,-1
 158 470 l 5,11,-1
 370 576 l 5,12,-1
 414 576 l 5,13,-1
 414 534 l 5,14,-1
 199 427 l 5,15,-1
 158 427 l 5,10,-1
EndSplineSet
EndChar

StartChar: ucircumflex
Encoding: 251 251 187
Width: 578
GlyphClass: 2
Flags: W
LayerCount: 2
Back
Fore
SplineSet
158 2 m 5,0,-1
 72 86 l 5,1,-1
 72 386 l 5,2,-1
 158 386 l 5,3,-1
 158 86 l 5,4,-1
 199 45 l 5,5,-1
 414 45 l 5,6,-1
 414 386 l 5,7,-1
 499 386 l 5,8,-1
 499 2 l 5,9,-1
 158 2 l 5,0,-1
115 427 m 5,10,-1
 115 471 l 5,11,-1
 285 556 l 5,12,-1
 455 471 l 5,13,-1
 455 427 l 5,14,-1
 414 427 l 5,15,-1
 265 502 l 5,16,-1
 115 427 l 5,10,-1
EndSplineSet
EndChar

StartChar: udieresis
Encoding: 252 252 188
Width: 578
GlyphClass: 2
Flags: W
LayerCount: 2
Back
Fore
SplineSet
158 0 m 5,0,-1
 72 85 l 5,1,-1
 72 384 l 5,2,-1
 158 384 l 5,3,-1
 158 85 l 5,4,-1
 199 42 l 5,5,-1
 414 42 l 5,6,-1
 414 384 l 5,7,-1
 499 384 l 5,8,-1
 499 0 l 5,9,-1
 158 0 l 5,0,-1
179 426 m 6,10,11
 169 426 169 426 163 431 c 260,12,13
 157 437 157 437 158 446 c 6,14,-1
 158 488 l 6,15,16
 158 497 158 497 163 504 c 4,17,18
 169 510 169 510 179 510 c 6,19,-1
 220 510 l 6,20,21
 228 510 228 510 237 504 c 4,22,23
 243 497 243 497 242 489 c 6,24,-1
 242 446 l 6,25,26
 242 436 242 436 237 431 c 4,27,28
 230 425 230 425 220 426 c 6,29,-1
 179 426 l 6,10,11
349 426 m 6,30,31
 340 426 340 426 333 431 c 4,32,33
 328 437 328 437 328 446 c 6,34,-1
 328 488 l 6,35,36
 328 497 328 497 333 504 c 4,37,38
 340 510 340 510 349 510 c 6,39,-1
 391 510 l 6,40,41
 399 510 399 510 405 504 c 4,42,43
 412 497 412 497 414 489 c 6,44,-1
 414 446 l 6,45,46
 414 436 414 436 405 431 c 260,47,48
 398 425 398 425 391 426 c 6,49,-1
 349 426 l 6,30,31
EndSplineSet
EndChar

StartChar: yacute
Encoding: 253 253 189
Width: 578
GlyphClass: 2
Flags: W
LayerCount: 2
Back
Fore
SplineSet
158 -168 m 5,0,-1
 158 -126 l 5,1,-1
 370 -126 l 5,2,-1
 414 -83 l 5,3,-1
 414 2 l 5,4,-1
 158 2 l 5,5,-1
 72 86 l 5,6,-1
 72 386 l 5,7,-1
 158 386 l 5,8,-1
 158 86 l 5,9,-1
 199 44 l 5,10,-1
 414 44 l 5,11,-1
 414 386 l 5,12,-1
 499 386 l 5,13,-1
 499 -83 l 5,14,-1
 414 -168 l 5,15,-1
 158 -168 l 5,0,-1
158 427 m 5,16,-1
 158 470 l 5,17,-1
 370 576 l 5,18,-1
 414 576 l 5,19,-1
 414 534 l 5,20,-1
 199 427 l 5,21,-1
 158 427 l 5,16,-1
EndSplineSet
EndChar

StartChar: thorn
Encoding: 254 254 190
Width: 582
GlyphClass: 2
Flags: W
LayerCount: 2
Back
Fore
SplineSet
376 42 m 5,0,-1
 420 85 l 5,1,-1
 420 298 l 5,2,-1
 376 341 l 5,3,-1
 164 341 l 5,4,-1
 164 42 l 5,5,-1
 376 42 l 5,0,-1
78 -171 m 5,6,-1
 78 597 l 5,7,-1
 164 597 l 5,8,-1
 164 384 l 5,9,-1
 420 384 l 5,10,-1
 505 298 l 5,11,-1
 505 85 l 5,12,-1
 420 0 l 5,13,-1
 164 0 l 5,14,-1
 164 -171 l 5,15,-1
 78 -171 l 5,6,-1
EndSplineSet
EndChar

StartChar: ydieresis
Encoding: 255 255 191
Width: 578
GlyphClass: 2
Flags: W
LayerCount: 2
Back
Fore
SplineSet
158 -171 m 5,0,-1
 158 -128 l 5,1,-1
 370 -128 l 5,2,-1
 414 -85 l 5,3,-1
 414 0 l 5,4,-1
 158 0 l 5,5,-1
 72 85 l 5,6,-1
 72 384 l 5,7,-1
 158 384 l 5,8,-1
 158 85 l 5,9,-1
 199 42 l 5,10,-1
 414 42 l 5,11,-1
 414 384 l 5,12,-1
 499 384 l 5,13,-1
 499 -85 l 5,14,-1
 414 -171 l 5,15,-1
 158 -171 l 5,0,-1
179 426 m 6,16,17
 169 426 169 426 163 431 c 260,18,19
 157 437 157 437 158 446 c 6,20,-1
 158 488 l 6,21,22
 158 497 158 497 163 504 c 4,23,24
 169 510 169 510 179 510 c 6,25,-1
 220 510 l 6,26,27
 228 510 228 510 237 504 c 4,28,29
 243 497 243 497 242 489 c 6,30,-1
 242 446 l 6,31,32
 242 436 242 436 237 431 c 4,33,34
 230 425 230 425 220 426 c 6,35,-1
 179 426 l 6,16,17
349 426 m 6,36,37
 340 426 340 426 333 431 c 4,38,39
 328 437 328 437 328 446 c 6,40,-1
 328 488 l 6,41,42
 328 497 328 497 333 504 c 4,43,44
 340 510 340 510 349 510 c 6,45,-1
 391 510 l 6,46,47
 399 510 399 510 405 504 c 4,48,49
 412 497 412 497 414 489 c 6,50,-1
 414 446 l 6,51,52
 414 436 414 436 405 431 c 260,53,54
 398 425 398 425 391 426 c 6,55,-1
 349 426 l 6,36,37
EndSplineSet
EndChar

StartChar: Ydieresis
Encoding: 376 376 192
Width: 471
GlyphClass: 2
Flags: W
LayerCount: 2
Back
Fore
SplineSet
130 1 m 5,0,-1
 130 42 l 5,1,-1
 258 42 l 5,2,-1
 343 128 l 5,3,-1
 343 256 l 5,4,-1
 215 256 l 5,5,-1
 2 683 l 5,6,-1
 86 683 l 5,7,-1
 279 299 l 5,8,-1
 343 299 l 5,9,-1
 343 683 l 5,10,-1
 427 683 l 5,11,-1
 427 128 l 5,12,-1
 300 1 l 5,13,-1
 130 1 l 5,0,-1
109 724 m 6,14,15
 99 724 99 724 94 730 c 260,16,17
 88 736 88 736 86 745 c 6,18,-1
 86 787 l 6,19,20
 86 796 86 796 94 803 c 4,21,22
 100 809 100 809 109 809 c 6,23,-1
 152 809 l 6,24,25
 160 809 160 809 167 803 c 4,26,27
 173 796 173 796 171 788 c 6,28,-1
 171 745 l 6,29,30
 171 736 171 736 167 730 c 4,31,32
 160 724 160 724 152 724 c 6,33,-1
 109 724 l 6,14,15
279 724 m 6,34,35
 270 724 270 724 263 730 c 4,36,37
 258 736 258 736 258 745 c 6,38,-1
 258 787 l 6,39,40
 258 796 258 796 263 803 c 4,41,42
 270 809 270 809 279 809 c 6,43,-1
 320 809 l 6,44,45
 328 809 328 809 337 803 c 4,46,47
 344 796 344 796 343 788 c 6,48,-1
 343 745 l 6,49,50
 343 736 343 736 337 730 c 260,51,52
 330 724 330 724 320 724 c 6,53,-1
 279 724 l 6,34,35
EndSplineSet
EndChar

StartChar: uni1E9E
Encoding: 7838 7838 193
Width: 583
GlyphClass: 2
Flags: W
LayerCount: 2
Back
Fore
SplineSet
-69 -85 m 1,0,-1
 -69 511 l 1,1,-1
 16 597 l 1,2,-1
 356 597 l 1,3,-1
 442 511 l 1,4,-1
 442 470 l 1,5,-1
 251 373 l 1,6,-1
 251 341 l 1,7,-1
 485 106 l 1,8,-1
 485 1 l 1,9,-1
 401 -85 l 1,10,-1
 143 -85 l 1,11,-1
 58 1 l 1,12,-1
 58 42 l 1,13,-1
 143 42 l 1,14,-1
 143 1 l 1,15,-1
 188 -42 l 1,16,-1
 356 -42 l 1,17,-1
 401 1 l 1,18,-1
 401 86 l 1,19,-1
 143 341 l 1,20,-1
 143 361 l 1,21,-1
 356 470 l 1,22,-1
 356 511 l 1,23,-1
 314 554 l 1,24,-1
 58 554 l 1,25,-1
 16 511 l 1,26,-1
 16 -85 l 1,27,-1
 -69 -85 l 1,0,-1
EndSplineSet
EndChar

StartChar: emdash
Encoding: 8212 8212 194
Width: 471
GlyphClass: 2
Flags: W
LayerCount: 2
Back
Fore
SplineSet
-53 251 m 1,0,-1
 -53 293 l 1,1,-1
 373 293 l 1,2,-1
 373 251 l 1,3,-1
 -53 251 l 1,0,-1
EndSplineSet
EndChar

StartChar: quoteleft
Encoding: 8216 8216 195
Width: 173
GlyphClass: 2
Flags: W
LayerCount: 2
Back
Fore
SplineSet
11 363 m 2,0,1
 1 363 1 363 -5 369 c 0,2,3
 -11 376 -11 376 -11 384 c 2,4,-1
 -11 491 l 1,5,-1
 32 533 l 1,6,-1
 74 533 l 1,7,-1
 32 491 l 1,8,-1
 32 448 l 1,9,-1
 53 448 l 2,10,11
 61 448 61 448 68 442 c 0,12,13
 75 436 75 436 74 427 c 2,14,-1
 74 384 l 2,15,16
 74 375 74 375 68 369 c 0,17,18
 61 364 61 364 53 363 c 2,19,-1
 11 363 l 2,0,1
EndSplineSet
EndChar

StartChar: quoteright
Encoding: 8217 8217 196
Width: 173
GlyphClass: 2
Flags: W
LayerCount: 2
Back
Fore
SplineSet
-11 363 m 1,0,-1
 32 406 l 1,1,-1
 32 448 l 1,2,-1
 11 448 l 2,3,4
 1 448 1 448 -5 454 c 0,5,6
 -11 461 -11 461 -11 470 c 2,7,-1
 -11 511 l 2,8,9
 -11 520 -11 520 -5 526 c 0,10,11
 1 533 1 533 11 533 c 2,12,-1
 53 533 l 2,13,14
 61 533 61 533 68 526 c 0,15,16
 75 520 75 520 74 512 c 2,17,-1
 74 406 l 1,18,-1
 32 363 l 1,19,-1
 -11 363 l 1,0,-1
EndSplineSet
EndChar

StartChar: quotesinglbase
Encoding: 8218 8218 197
Width: 173
GlyphClass: 2
Flags: W
LayerCount: 2
Back
Fore
SplineSet
-11 -85 m 1,0,-1
 32 -42 l 1,1,-1
 32 0 l 1,2,-1
 11 0 l 2,3,4
 1 0 1 0 -5 5 c 0,5,6
 -11 12 -11 12 -11 21 c 2,7,-1
 -11 62 l 2,8,9
 -11 71 -11 71 -5 79 c 0,10,11
 1 86 1 86 11 85 c 2,12,-1
 53 85 l 2,13,14
 61 85 61 85 68 79 c 0,15,16
 75 73 75 73 74 64 c 2,17,-1
 74 -42 l 1,18,-1
 32 -85 l 1,19,-1
 -11 -85 l 1,0,-1
EndSplineSet
EndChar

StartChar: quotereversed
Encoding: 8219 8219 198
Width: 173
GlyphClass: 2
Flags: W
LayerCount: 2
Back
Fore
SplineSet
32 363 m 1,0,-1
 -11 406 l 1,1,-1
 -11 512 l 2,2,3
 -11 520 -11 520 -5 526 c 0,4,5
 1 533 1 533 11 533 c 2,6,-1
 53 533 l 2,7,8
 61 533 61 533 68 526 c 0,9,10
 75 520 75 520 74 511 c 2,11,-1
 74 470 l 2,12,13
 74 461 74 461 68 454 c 0,14,15
 61 449 61 449 53 448 c 2,16,-1
 32 448 l 1,17,-1
 32 406 l 1,18,-1
 74 363 l 1,19,-1
 32 363 l 1,0,-1
EndSplineSet
EndChar

StartChar: quotedblleft
Encoding: 8220 8220 199
Width: 286
GlyphClass: 2
Flags: W
LayerCount: 2
Back
Fore
SplineSet
-5 363 m 2,0,1
 -14 363 -14 363 -21 369 c 0,2,3
 -26 376 -26 376 -26 384 c 2,4,-1
 -26 491 l 1,5,-1
 16 533 l 1,6,-1
 58 533 l 1,7,-1
 16 491 l 1,8,-1
 16 448 l 1,9,-1
 37 448 l 2,10,11
 45 448 45 448 52 442 c 0,12,13
 59 436 59 436 58 427 c 2,14,-1
 58 384 l 2,15,16
 58 375 58 375 52 369 c 0,17,18
 45 364 45 364 37 363 c 2,19,-1
 -5 363 l 2,0,1
122 363 m 2,20,21
 112 363 112 363 106 369 c 0,22,23
 100 376 100 376 102 384 c 2,24,-1
 102 491 l 1,25,-1
 143 533 l 1,26,-1
 186 533 l 1,27,-1
 143 491 l 1,28,-1
 143 448 l 1,29,-1
 165 448 l 2,30,31
 173 448 173 448 180 442 c 0,32,33
 186 436 186 436 186 427 c 2,34,-1
 186 384 l 2,35,36
 186 375 186 375 180 369 c 0,37,38
 173 364 173 364 165 363 c 2,39,-1
 122 363 l 2,20,21
EndSplineSet
EndChar

StartChar: quotedblright
Encoding: 8221 8221 200
Width: 286
GlyphClass: 2
Flags: W
LayerCount: 2
Back
Fore
SplineSet
-26 363 m 1,0,-1
 16 406 l 1,1,-1
 16 448 l 1,2,-1
 -5 448 l 2,3,4
 -14 448 -14 448 -21 454 c 0,5,6
 -26 461 -26 461 -26 470 c 2,7,-1
 -26 511 l 2,8,9
 -26 520 -26 520 -21 526 c 0,10,11
 -14 533 -14 533 -5 533 c 2,12,-1
 37 533 l 2,13,14
 45 533 45 533 52 526 c 0,15,16
 59 520 59 520 58 512 c 2,17,-1
 58 406 l 1,18,-1
 16 363 l 1,19,-1
 -26 363 l 1,0,-1
102 363 m 1,20,-1
 143 406 l 1,21,-1
 143 448 l 1,22,-1
 122 448 l 2,23,24
 112 448 112 448 106 454 c 0,25,26
 100 461 100 461 102 470 c 2,27,-1
 102 511 l 2,28,29
 102 520 102 520 106 526 c 0,30,31
 112 533 112 533 122 533 c 2,32,-1
 165 533 l 2,33,34
 173 533 173 533 180 526 c 0,35,36
 186 520 186 520 186 512 c 2,37,-1
 186 406 l 1,38,-1
 143 363 l 1,39,-1
 102 363 l 1,20,-1
EndSplineSet
EndChar

StartChar: quotedblbase
Encoding: 8222 8222 201
Width: 286
GlyphClass: 2
Flags: W
LayerCount: 2
Back
Fore
SplineSet
-26 -85 m 1,0,-1
 16 -42 l 1,1,-1
 16 0 l 1,2,-1
 -5 0 l 2,3,4
 -14 0 -14 0 -21 5 c 0,5,6
 -26 12 -26 12 -26 21 c 2,7,-1
 -26 62 l 2,8,9
 -26 71 -26 71 -21 79 c 0,10,11
 -14 86 -14 86 -5 85 c 2,12,-1
 37 85 l 2,13,14
 45 85 45 85 52 79 c 0,15,16
 59 73 59 73 58 64 c 2,17,-1
 58 -42 l 1,18,-1
 16 -85 l 1,19,-1
 -26 -85 l 1,0,-1
102 -85 m 1,20,-1
 143 -42 l 1,21,-1
 143 0 l 1,22,-1
 122 0 l 2,23,24
 112 0 112 0 106 5 c 0,25,26
 100 12 100 12 102 21 c 2,27,-1
 102 62 l 2,28,29
 102 71 102 71 106 79 c 0,30,31
 112 86 112 86 122 85 c 2,32,-1
 165 85 l 2,33,34
 173 85 173 85 180 79 c 0,35,36
 186 73 186 73 186 64 c 2,37,-1
 186 -42 l 1,38,-1
 143 -85 l 1,39,-1
 102 -85 l 1,20,-1
EndSplineSet
EndChar

StartChar: dagger
Encoding: 8224 8224 202
Width: 397
GlyphClass: 2
Flags: W
LayerCount: 2
Back
Fore
SplineSet
85 -85 m 1,0,-1
 85 426 l 1,1,-1
 -42 426 l 1,2,-1
 -42 470 l 1,3,-1
 85 470 l 1,4,-1
 85 597 l 1,5,-1
 171 597 l 1,6,-1
 171 470 l 1,7,-1
 298 470 l 1,8,-1
 298 426 l 1,9,-1
 171 426 l 1,10,-1
 171 -85 l 1,11,-1
 85 -85 l 1,0,-1
EndSplineSet
EndChar

StartChar: bullet
Encoding: 8226 8226 203
Width: 248
GlyphClass: 2
Flags: W
LayerCount: 2
Back
Fore
SplineSet
21 171 m 2,0,1
 3 171 3 171 -9 184 c 256,2,3
 -21 196 -21 196 -21 213 c 2,4,-1
 -21 299 l 2,5,6
 -21 316 -21 316 -9 328 c 0,7,8
 3 341 3 341 21 341 c 2,9,-1
 106 341 l 2,10,11
 123 341 123 341 136 328 c 0,12,13
 149 316 149 316 149 299 c 2,14,-1
 149 213 l 2,15,16
 149 195 149 195 136 184 c 0,17,18
 124 172 124 172 106 171 c 2,19,-1
 21 171 l 2,0,1
EndSplineSet
EndChar

StartChar: ellipsis
Encoding: 8230 8230 204
Width: 397
GlyphClass: 2
Flags: W
LayerCount: 2
Back
Fore
SplineSet
-21 -11 m 2,0,1
 -30 -11 -30 -11 -37 -5 c 0,2,3
 -42 1 -42 1 -42 11 c 2,4,-1
 -42 52 l 2,5,6
 -42 61 -42 61 -37 68 c 0,7,8
 -30 75 -30 75 -21 74 c 2,9,-1
 22 74 l 2,10,11
 30 74 30 74 36 68 c 0,12,13
 43 61 43 61 42 53 c 2,14,-1
 42 11 l 2,15,16
 42 1 42 1 36 -5 c 0,17,18
 30 -11 30 -11 22 -11 c 2,19,-1
 -21 -11 l 2,0,1
106 -11 m 2,20,21
 96 -11 96 -11 90 -5 c 256,22,23
 84 1 84 1 85 11 c 2,24,-1
 85 52 l 2,25,26
 85 61 85 61 90 68 c 256,27,28
 96 75 96 75 106 74 c 2,29,-1
 149 74 l 2,30,31
 157 74 157 74 164 68 c 256,32,33
 171 61 171 61 171 53 c 2,34,-1
 171 11 l 2,35,36
 171 1 171 1 164 -5 c 256,37,38
 157 -11 157 -11 149 -11 c 2,39,-1
 106 -11 l 2,20,21
234 -11 m 2,40,41
 225 -11 225 -11 218 -5 c 0,42,43
 213 1 213 1 213 11 c 2,44,-1
 213 52 l 2,45,46
 213 61 213 61 218 68 c 0,47,48
 225 75 225 75 234 74 c 2,49,-1
 277 74 l 2,50,51
 285 74 285 74 292 68 c 0,52,53
 298 61 298 61 298 53 c 2,54,-1
 298 11 l 2,55,56
 298 1 298 1 292 -5 c 0,57,58
 285 -11 285 -11 277 -11 c 2,59,-1
 234 -11 l 2,40,41
EndSplineSet
EndChar

StartChar: guilsinglleft
Encoding: 8249 8249 205
Width: 288
GlyphClass: 2
Flags: W
LayerCount: 2
Back
Fore
SplineSet
103 6 m 1,0,-1
 -24 261 l 1,1,-1
 83 474 l 1,2,-1
 168 474 l 1,3,-1
 40 219 l 1,4,-1
 147 6 l 1,5,-1
 103 6 l 1,0,-1
EndSplineSet
EndChar

StartChar: guilsinglright
Encoding: 8250 8250 206
Width: 282
GlyphClass: 2
Flags: W
LayerCount: 2
Back
Fore
SplineSet
-8 6 m 1,0,-1
 119 261 l 1,1,-1
 14 474 l 1,2,-1
 56 474 l 1,3,-1
 184 219 l 1,4,-1
 77 6 l 1,5,-1
 -8 6 l 1,0,-1
EndSplineSet
EndChar

StartChar: Euro
Encoding: 8364 8364 207
Width: 471
GlyphClass: 2
Flags: W
LayerCount: 2
Back
Fore
SplineSet
74 -42 m 1,0,-1
 -10 42 l 1,1,-1
 -10 171 l 1,2,-1
 -53 171 l 1,3,-1
 -53 213 l 1,4,-1
 -10 213 l 1,5,-1
 -10 299 l 1,6,-1
 -53 299 l 1,7,-1
 -53 341 l 1,8,-1
 -10 341 l 1,9,-1
 -10 470 l 1,10,-1
 74 554 l 1,11,-1
 288 554 l 1,12,-1
 373 470 l 1,13,-1
 288 470 l 1,14,-1
 245 511 l 1,15,-1
 117 511 l 1,16,-1
 74 470 l 1,17,-1
 74 341 l 1,18,-1
 204 341 l 1,19,-1
 204 299 l 1,20,-1
 74 299 l 1,21,-1
 74 213 l 1,22,-1
 204 213 l 1,23,-1
 204 171 l 1,24,-1
 74 171 l 1,25,-1
 74 42 l 1,26,-1
 117 1 l 1,27,-1
 245 1 l 1,28,-1
 288 42 l 1,29,-1
 373 42 l 1,30,-1
 288 -42 l 1,31,-1
 74 -42 l 1,0,-1
EndSplineSet
EndChar

StartChar: trademark
Encoding: 8482 8482 208
Width: 509
GlyphClass: 2
Flags: W
LayerCount: 2
Back
Fore
SplineSet
27 326 m 1,0,-1
 27 496 l 1,1,-1
 -58 496 l 1,2,-1
 -58 538 l 1,3,-1
 156 538 l 1,4,-1
 156 496 l 1,5,-1
 70 496 l 1,6,-1
 70 326 l 1,7,-1
 27 326 l 1,0,-1
197 326 m 1,8,-1
 197 538 l 1,9,-1
 240 538 l 1,10,-1
 282 496 l 1,11,-1
 282 495 l 1,12,-1
 304 475 l 1,13,-1
 369 538 l 1,14,-1
 410 538 l 1,15,-1
 410 326 l 1,16,-1
 369 326 l 1,17,-1
 369 454 l 1,18,-1
 304 390 l 1,19,-1
 240 454 l 1,20,-1
 240 326 l 1,21,-1
 197 326 l 1,8,-1
EndSplineSet
EndChar

StartChar: uniFB00
Encoding: 64256 64256 209
Width: 546
GlyphClass: 2
Flags: W
LayerCount: 2
Back
Fore
SplineSet
-62 -85 m 1,0,-1
 -62 511 l 1,1,-1
 22 597 l 1,2,-1
 192 597 l 1,3,-1
 192 554 l 1,4,-1
 64 554 l 1,5,-1
 22 511 l 1,6,-1
 22 299 l 1,7,-1
 192 299 l 1,8,-1
 192 511 l 1,9,-1
 277 597 l 1,10,-1
 446 597 l 1,11,-1
 446 554 l 1,12,-1
 320 554 l 1,13,-1
 277 511 l 1,14,-1
 277 299 l 1,15,-1
 446 299 l 1,16,-1
 446 256 l 1,17,-1
 277 256 l 1,18,-1
 277 -85 l 1,19,-1
 192 -85 l 1,20,-1
 192 256 l 1,21,-1
 22 256 l 1,22,-1
 22 -85 l 1,23,-1
 -62 -85 l 1,0,-1
EndSplineSet
EndChar

StartChar: uniFB01
Encoding: 64257 64257 210
Width: 361
GlyphClass: 2
Flags: W
LayerCount: 2
Back
Fore
SplineSet
-37 -85 m 1,0,-1
 -37 511 l 1,1,-1
 48 597 l 1,2,-1
 218 597 l 1,3,-1
 218 554 l 1,4,-1
 90 554 l 1,5,-1
 48 511 l 1,6,-1
 48 299 l 1,7,-1
 261 299 l 1,8,-1
 261 -85 l 1,9,-1
 175 -85 l 1,10,-1
 175 256 l 1,11,-1
 48 256 l 1,12,-1
 48 -85 l 1,13,-1
 -37 -85 l 1,0,-1
EndSplineSet
EndChar

StartChar: uniFB02
Encoding: 64258 64258 211
Width: 471
GlyphClass: 2
Flags: W
LayerCount: 2
Back
Fore
SplineSet
-53 -85 m 1,0,-1
 -53 511 l 1,1,-1
 32 597 l 1,2,-1
 330 597 l 1,3,-1
 330 42 l 1,4,-1
 373 1 l 1,5,-1
 373 -85 l 1,6,-1
 330 -85 l 1,7,-1
 245 1 l 1,8,-1
 245 554 l 1,9,-1
 74 554 l 1,10,-1
 32 511 l 1,11,-1
 32 299 l 1,12,-1
 204 299 l 1,13,-1
 204 256 l 1,14,-1
 32 256 l 1,15,-1
 32 -85 l 1,16,-1
 -53 -85 l 1,0,-1
EndSplineSet
EndChar

StartChar: uniFB03
Encoding: 64259 64259 212
Width: 583
GlyphClass: 2
Flags: W
LayerCount: 2
Back
Fore
SplineSet
-69 -85 m 1,0,-1
 -69 511 l 1,1,-1
 16 597 l 1,2,-1
 188 597 l 1,3,-1
 188 554 l 1,4,-1
 58 554 l 1,5,-1
 16 511 l 1,6,-1
 16 299 l 1,7,-1
 188 299 l 1,8,-1
 188 511 l 1,9,-1
 272 597 l 1,10,-1
 442 597 l 1,11,-1
 442 554 l 1,12,-1
 314 554 l 1,13,-1
 272 511 l 1,14,-1
 272 299 l 1,15,-1
 485 299 l 1,16,-1
 485 -85 l 1,17,-1
 401 -85 l 1,18,-1
 401 256 l 1,19,-1
 272 256 l 1,20,-1
 272 -85 l 1,21,-1
 188 -85 l 1,22,-1
 188 256 l 1,23,-1
 16 256 l 1,24,-1
 16 -85 l 1,25,-1
 -69 -85 l 1,0,-1
EndSplineSet
EndChar

StartChar: uniFB04
Encoding: 64260 64260 213
Width: 696
GlyphClass: 2
Flags: W
LayerCount: 2
Back
Fore
SplineSet
-85 -85 m 1,0,-1
 -85 511 l 1,1,-1
 1 597 l 1,2,-1
 171 597 l 1,3,-1
 171 554 l 1,4,-1
 42 554 l 1,5,-1
 1 511 l 1,6,-1
 1 299 l 1,7,-1
 171 299 l 1,8,-1
 171 511 l 1,9,-1
 256 597 l 1,10,-1
 554 597 l 1,11,-1
 554 42 l 1,12,-1
 597 1 l 1,13,-1
 597 -85 l 1,14,-1
 554 -85 l 1,15,-1
 470 1 l 1,16,-1
 470 554 l 1,17,-1
 299 554 l 1,18,-1
 256 511 l 1,19,-1
 256 299 l 1,20,-1
 426 299 l 1,21,-1
 426 256 l 1,22,-1
 256 256 l 1,23,-1
 256 -85 l 1,24,-1
 171 -85 l 1,25,-1
 171 256 l 1,26,-1
 1 256 l 1,27,-1
 1 -85 l 1,28,-1
 -85 -85 l 1,0,-1
EndSplineSet
EndChar

StartChar: uniFB06
Encoding: 64262 64262 214
Width: 696
GlyphClass: 2
Flags: W
LayerCount: 2
Back
Fore
SplineSet
1 -58 m 1,0,-1
 -85 27 l 1,1,-1
 1 27 l 1,2,-1
 42 -16 l 1,3,-1
 213 -16 l 1,4,-1
 256 27 l 1,5,-1
 256 70 l 1,6,-1
 213 111 l 1,7,-1
 -42 111 l 1,8,-1
 -85 156 l 1,9,-1
 -85 240 l 1,10,-1
 1 324 l 1,11,-1
 384 324 l 1,12,-1
 384 410 l 1,13,-1
 470 410 l 1,14,-1
 470 324 l 1,15,-1
 597 324 l 1,16,-1
 597 282 l 1,17,-1
 470 282 l 1,18,-1
 470 27 l 1,19,-1
 511 -16 l 1,20,-1
 597 -16 l 1,21,-1
 597 -58 l 1,22,-1
 470 -58 l 1,23,-1
 384 27 l 1,24,-1
 384 282 l 1,25,-1
 42 282 l 1,26,-1
 1 240 l 1,27,-1
 1 197 l 1,28,-1
 42 156 l 1,29,-1
 299 156 l 1,30,-1
 341 111 l 1,31,-1
 341 27 l 1,32,-1
 256 -58 l 1,33,-1
 1 -58 l 1,0,-1
EndSplineSet
EndChar
